<svg width="391" height="381" viewBox="0 0 391 381" fill="none" xmlns="http://www.w3.org/2000/svg">
<path d="M364.877 180.105C365.784 174.902 367.242 169.757 368.285 164.457C370.171 154.226 370.318 143.751 368.719 133.471C365.68 113.745 357.837 95.068 345.88 79.0866C333.157 62.0202 314.025 48.1972 293.465 53.4194C272.074 58.825 253.965 75.3219 233.163 82.8512C197.929 95.5931 162.262 72.3681 126.758 73.1983C96.1005 73.8643 63.9369 84.8687 43.7429 112.08C35.4993 123.191 29.7558 138.143 31.7057 152.854C34.09 170.78 47.2469 184.42 57.0543 197.683C72.0936 218.012 77.7889 240.156 65.1338 263.883C56.5813 279.964 45.075 294.173 46.0693 314.145C47.662 346.097 77.1614 365.393 101.487 373.994C126.198 382.739 154.259 383.647 178.826 373.801C200.652 365.016 215.884 345.807 235.779 333.548C253.219 322.744 273.827 318.221 294.189 320.729C315.213 323.238 337.366 327.66 357.686 318.595C377.127 309.908 386.336 286.692 387.06 264.442C387.469 253.341 385.796 242.262 382.127 231.777C377.619 219.17 367.647 209.334 364.838 195.964C363.832 190.724 363.845 185.34 364.877 180.105Z" fill="#403279"/>
<path opacity="0.7" d="M364.877 180.105C365.784 174.902 367.242 169.757 368.285 164.457C370.171 154.226 370.318 143.751 368.719 133.471C365.68 113.745 357.837 95.068 345.88 79.0866C333.157 62.0202 314.025 48.1972 293.465 53.4194C272.074 58.825 253.965 75.3219 233.163 82.8512C197.929 95.5931 162.262 72.3681 126.758 73.1983C96.1005 73.8643 63.9369 84.8687 43.7429 112.08C35.4993 123.191 29.7558 138.143 31.7057 152.854C34.09 170.78 47.2469 184.42 57.0543 197.683C72.0936 218.012 77.7889 240.156 65.1338 263.883C56.5813 279.964 45.075 294.173 46.0693 314.145C47.662 346.097 77.1614 365.393 101.487 373.994C126.198 382.739 154.259 383.647 178.826 373.801C200.652 365.016 215.884 345.807 235.779 333.548C253.219 322.744 273.827 318.221 294.189 320.729C315.213 323.238 337.366 327.66 357.686 318.595C377.127 309.908 386.336 286.692 387.06 264.442C387.469 253.341 385.796 242.262 382.127 231.777C377.619 219.17 367.647 209.334 364.838 195.964C363.832 190.724 363.845 185.34 364.877 180.105Z" fill="white"/>
<path d="M309.528 23.9971C309.585 23.9971 311.313 19.4409 311.391 19.1706C312.269 15.6666 311.893 8.37864 308.495 6.24534C307.914 5.91684 307.272 5.71217 306.609 5.64424C305.945 5.57632 305.275 5.64661 304.64 5.85067C304.005 6.05474 303.42 6.38816 302.92 6.82991C302.421 7.27165 302.018 7.81213 301.738 8.41725C300.473 10.9849 301.361 14.3924 302.577 16.8057C303.948 19.5857 309.528 23.9874 309.528 23.9971Z" fill="#403279"/>
<path d="M389.618 57.4052C386.79 54.5093 379.598 55.7063 376.365 57.3183C376.085 57.4535 371.963 60.1273 372.021 60.2142L372.079 60.2721C370.949 60.4555 369.723 60.6582 368.401 60.9092C365.959 61.4015 363.198 61.971 360.244 62.8398C357.044 63.6876 353.897 64.7289 350.823 65.9577C347.369 67.3076 344.042 68.9616 340.88 70.9L340.774 70.9772C341.546 70.0795 343.612 67.4829 343.757 67.2705C345.687 64.2105 347.618 57.1735 345.002 54.0749C344.55 53.5804 344 53.1854 343.386 52.9151C342.773 52.6449 342.11 52.5054 341.44 52.5054C340.77 52.5054 340.107 52.6449 339.494 52.9151C338.881 53.1854 338.33 53.5804 337.878 54.0749C335.88 56.1214 335.658 59.6254 336.063 62.2992C336.527 65.3013 340.127 70.8324 340.417 71.2765C337.249 73.3213 334.224 75.5788 331.363 78.0335C329.683 79.4622 328.042 80.9294 326.411 82.4546C327.048 81.6534 327.617 80.9391 327.685 80.8232C329.615 77.7632 331.546 70.7263 328.94 67.6277C328.487 67.1331 327.937 66.7381 327.324 66.4679C326.711 66.1977 326.048 66.0581 325.378 66.0581C324.708 66.0581 324.045 66.1977 323.431 66.4679C322.818 66.7381 322.268 67.1331 321.816 67.6277C319.818 69.6741 319.596 73.1878 320.001 75.852C320.406 78.5162 323.389 83.333 324.19 84.5396L322.337 86.2868C319.374 89.1055 316.429 91.9338 313.456 94.6173C312.414 95.5826 311.342 96.461 310.28 97.3587C310.85 96.6444 311.323 96.0459 311.391 95.9494C313.321 92.8894 315.252 85.8524 312.636 82.7442C312.187 82.2465 311.639 81.8478 311.028 81.5734C310.417 81.299 309.755 81.155 309.085 81.1504C308.414 81.1459 307.751 81.281 307.136 81.547C306.52 81.8131 305.967 82.2044 305.512 82.6959C303.523 84.7423 303.292 88.256 303.697 90.9202C304.103 93.5844 306.805 97.9379 307.751 99.4341C306.641 100.322 305.522 101.21 304.402 102.021C303.62 102.552 302.906 103.122 302.095 103.614L299.739 105.12C298.205 106.017 296.631 106.954 295.116 107.803C294.064 108.392 293.05 108.933 292.036 109.492C293.089 108.527 295.106 106.693 295.261 106.519C297.258 104.042 298.587 101.094 299.122 97.9572C299.358 97.6936 299.565 97.4056 299.739 97.0981C300.092 96.5289 300.323 95.8925 300.417 95.2294C300.51 94.5662 300.465 93.8909 300.283 93.2463C300.102 92.6016 299.788 92.0019 299.362 91.4851C298.936 90.9683 298.407 90.5458 297.809 90.2445C295.019 88.9607 290.733 90.7851 287.76 92.8991C287.886 90.843 287.828 89.5785 287.828 89.5785L287.046 89.6557L287.615 88.2946C288.001 87.4452 288.291 86.4992 288.629 85.5918C289.382 83.4681 290.038 81.2769 290.656 79.0664C292.056 79.7421 297.046 82.1071 299.759 82.2036C302.471 82.3001 305.917 81.6824 307.722 79.4622C308.16 78.9535 308.486 78.3594 308.68 77.7177C308.875 77.0759 308.934 76.4007 308.853 75.7349C308.772 75.0692 308.554 74.4276 308.211 73.8511C307.868 73.2746 307.409 72.7758 306.863 72.3866C303.485 70.1664 296.708 72.8789 293.89 75.1376C293.716 75.2824 291.872 77.1358 290.888 78.1687C291.245 76.8366 291.612 75.5045 291.93 74.1337C292.847 70.205 293.658 66.1894 294.488 62.1931C294.739 60.9671 295.01 59.7509 295.27 58.5249C295.762 58.7759 301.641 61.7104 304.672 61.8166C307.375 61.9131 310.831 61.2953 312.636 59.0752C313.071 58.5667 313.396 57.9733 313.59 57.3325C313.784 56.6917 313.842 56.0176 313.761 55.3531C313.68 54.6886 313.462 54.0482 313.121 53.4725C312.779 52.8968 312.321 52.3985 311.777 52.0092C308.398 49.7794 301.622 52.4918 298.803 54.7603C298.591 54.9244 295.907 57.5886 295.318 58.3029C295.888 55.6194 296.496 52.9455 297.191 50.3296C298.113 46.8013 299.267 43.338 300.647 39.9623C300.879 40.0782 306.998 43.1671 310.107 43.2733C312.8 43.3795 316.265 42.752 318.07 40.5318C318.505 40.0228 318.83 39.4288 319.023 38.7876C319.216 38.1465 319.273 37.4722 319.191 36.8076C319.11 36.1431 318.891 35.5028 318.548 34.9275C318.205 34.3522 317.747 33.8544 317.202 33.4659C313.823 31.2361 307.056 33.9485 304.238 36.217C304.016 36.3907 301.178 39.2577 300.695 39.8175C300.782 39.6245 300.84 39.4121 300.927 39.219C302.393 35.8493 304.16 32.6186 306.207 29.5661C307.317 27.8768 308.466 26.3131 309.624 24.8265C310.705 25.5215 315.676 28.6298 318.466 29.0448C321.256 29.4599 324.644 29.1896 326.681 27.1915C327.17 26.7332 327.558 26.1782 327.821 25.5616C328.084 24.9451 328.215 24.2806 328.207 23.6104C328.199 22.9402 328.051 22.2791 327.774 21.6691C327.496 21.0592 327.094 20.5138 326.594 20.0676C323.486 17.4806 316.458 19.4402 313.408 21.3804C313.244 21.4769 311.671 22.7415 310.512 23.6682C311.043 23.0118 311.574 22.3167 312.095 21.6893C314.026 19.334 315.956 17.2972 317.713 15.5114C318.679 14.5461 319.644 13.5808 320.484 12.7796C321.903 12.9051 327.608 13.3395 330.223 12.4418C332.839 11.5441 335.784 9.7293 336.662 7.00717C336.885 6.3757 336.975 5.70466 336.925 5.03674C336.875 4.36882 336.686 3.71865 336.371 3.12758C336.056 2.5365 335.621 2.01748 335.095 1.60352C334.568 1.18956 333.961 0.889726 333.312 0.723099C329.355 -0.136013 324.017 4.84491 322.202 7.96281C322.047 8.23309 320.088 12.741 320.155 12.7893H320.242C319.393 13.5615 318.495 14.411 317.53 15.3473C315.754 17.1041 313.775 19.1023 311.738 21.4287C309.542 23.907 307.492 26.5113 305.599 29.2282C303.466 32.2749 301.609 35.5053 300.048 38.8812L299.99 39.0067C300.145 37.829 300.444 34.5277 300.434 34.2671C300.357 30.6569 298.079 23.7261 294.199 22.5677C293.551 22.399 292.876 22.3668 292.216 22.4729C291.555 22.5791 290.924 22.8214 290.362 23.1845C289.8 23.5475 289.32 24.0234 288.952 24.582C288.584 25.1405 288.336 25.7694 288.224 26.4289C287.693 29.2282 289.44 32.2786 291.255 34.2864C293.291 36.5452 299.353 39.1129 299.836 39.3735C298.324 42.8218 297.05 46.3695 296.023 49.9917C295.405 52.1057 294.855 54.2487 294.324 56.4109C294.421 55.3877 294.498 54.4804 294.488 54.3452C294.411 50.735 292.133 43.8042 288.252 42.6458C287.606 42.4787 286.931 42.4476 286.272 42.5545C285.613 42.6614 284.983 42.904 284.422 43.2669C283.861 43.6299 283.382 44.1052 283.015 44.6629C282.647 45.2207 282.399 45.8486 282.287 46.507C281.746 49.3064 283.503 52.3567 285.308 54.3645C287.113 56.3723 292.268 58.7276 293.629 59.3358C293.436 60.1659 293.233 60.9864 293.04 61.8166C292.123 65.8033 291.235 69.7899 290.231 73.6607C289.884 75.0315 289.488 76.3636 289.102 77.6957C289.179 76.798 289.237 76.0257 289.237 75.9099C289.16 72.2997 286.882 65.3689 283.001 64.2105C282.355 64.0434 281.68 64.0123 281.021 64.1192C280.362 64.2261 279.732 64.4687 279.171 64.8316C278.61 65.1945 278.131 65.6699 277.763 66.2276C277.396 66.7853 277.148 67.4133 277.036 68.0717C276.495 70.8807 278.242 73.931 280.057 75.9388C281.872 77.9467 286.515 80.0703 288.127 80.7653C287.693 82.1264 287.249 83.4778 286.756 84.7713C286.409 85.6497 286.129 86.5185 285.723 87.3776L284.613 89.868C283.754 90.0128 282.76 90.2059 281.65 90.4569C281.36 86.8177 279.999 82.3773 277.229 81.0646C276.612 80.7995 275.947 80.666 275.276 80.6726C274.605 80.6792 273.942 80.8257 273.331 81.1028C272.719 81.3798 272.173 81.7814 271.725 82.2817C271.278 82.7821 270.94 83.3703 270.732 84.0087C269.767 86.7019 271.051 89.9839 272.537 92.233C272.755 92.5745 273 92.8974 273.271 93.1983C268.527 95.1331 264.261 98.078 260.771 101.828C250.76 113.025 251.513 130.034 251.513 130.034C251.513 130.034 265.713 129.069 275.8 120.381C278.899 118.914 282.905 116.964 287.49 114.502C289.208 113.595 291.023 112.572 292.876 111.52C293.369 112.128 297.355 117.07 300.01 118.412C302.423 119.638 305.802 120.516 308.389 119.261C308.994 118.982 309.536 118.58 309.979 118.081C310.421 117.582 310.756 116.996 310.961 116.361C311.166 115.726 311.237 115.056 311.17 114.392C311.102 113.728 310.898 113.085 310.57 112.504C308.437 109.068 301.149 108.701 297.645 109.608C297.442 109.666 295.26 110.477 293.89 111.008C294.643 110.574 295.386 110.159 296.158 109.695C297.693 108.797 299.199 107.861 300.821 106.857L303.147 105.303C303.929 104.801 304.701 104.174 305.483 103.604C307.278 102.253 309.035 100.786 310.773 99.2797C311.564 100.621 314.431 105.342 316.632 106.915C318.833 108.489 322.057 109.879 324.789 109.029C325.434 108.845 326.033 108.528 326.549 108.1C327.064 107.671 327.485 107.139 327.784 106.539C328.082 105.939 328.253 105.283 328.284 104.613C328.315 103.943 328.206 103.274 327.965 102.649C326.382 98.9322 319.229 97.4553 315.638 97.8221C315.406 97.8221 312.858 98.3723 311.458 98.6908C312.491 97.7738 313.534 96.8568 314.557 95.9011C317.453 93.1211 320.349 90.2252 323.244 87.3486C324.132 86.4606 325.03 85.5918 325.918 84.723C326.189 85.196 329.48 90.8913 331.951 92.6577C334.143 94.2312 337.376 95.6115 340.098 94.7621C340.743 94.5787 341.342 94.2632 341.858 93.8356C342.374 93.408 342.795 92.8776 343.095 92.2783C343.394 91.679 343.566 91.0239 343.598 90.3547C343.631 89.6854 343.524 89.0167 343.284 88.3912C341.691 84.6651 334.596 83.1979 330.947 83.5647C330.677 83.5647 327.009 84.3562 326.121 84.5975C328.052 82.6669 330.059 80.7364 332.077 78.9892C334.797 76.552 337.673 74.2948 340.687 72.2321C340.813 72.4541 344.22 78.41 346.749 80.2151C348.941 81.7885 352.174 83.1786 354.896 82.3194C355.541 82.1361 356.14 81.8205 356.656 81.3929C357.172 80.9653 357.593 80.435 357.893 79.8357C358.192 79.2364 358.364 78.5813 358.396 77.912C358.429 77.2428 358.322 76.5741 358.082 75.9485C356.489 72.2225 349.346 70.7552 345.745 71.122C345.465 71.122 341.517 71.9811 340.803 72.1838C340.986 72.0584 341.151 71.9232 341.324 71.8074C344.403 69.822 347.653 68.1163 351.035 66.7106C352.889 65.9094 354.703 65.2434 356.489 64.6449C357.01 65.8129 359.443 71.151 361.547 73.0333C363.652 74.9156 366.615 76.5663 369.414 76.0257C370.076 75.9139 370.707 75.6653 371.267 75.2959C371.827 74.9265 372.304 74.4444 372.668 73.8803C373.031 73.3163 373.273 72.6826 373.377 72.0199C373.482 71.3571 373.447 70.6798 373.276 70.0312C372.098 66.1701 365.157 63.9113 361.547 63.8534C361.345 63.8534 359.346 64.0271 357.889 64.1912C358.7 63.9306 359.53 63.641 360.312 63.4093C363.208 62.5213 365.978 61.8938 368.411 61.3533C369.791 61.054 371.046 60.8127 372.272 60.61C373.382 61.4884 377.909 65.0021 380.583 65.6971C383.257 66.3921 386.712 66.4983 388.952 64.7318C389.524 64.3288 390.002 63.8063 390.352 63.2003C390.702 62.5944 390.916 61.9195 390.98 61.2226C391.043 60.5256 390.954 59.8232 390.719 59.164C390.484 58.5049 390.108 57.9047 389.618 57.4052ZM286.428 112.321C284.324 113.392 282.335 114.367 280.501 115.217C283.607 110.712 285.74 105.61 286.766 100.235C287.316 100.37 287.876 100.486 288.436 100.592C288.6 103.633 291.023 109.039 291.332 109.734C289.652 110.66 288.002 111.568 286.428 112.321Z" fill="#403279"/>
<path d="M361.113 60.7085C363.777 58.2664 367.493 52.0209 365.804 48.3142C365.503 47.7161 365.08 47.1872 364.563 46.7613C364.047 46.3353 363.447 46.0216 362.802 45.84C362.157 45.6584 361.482 45.613 360.819 45.7065C360.156 45.8001 359.519 46.0307 358.95 46.3836C356.489 47.8315 355.34 51.1521 355.031 53.8357C354.664 56.9825 356.885 63.7299 356.885 63.7299C356.885 63.7299 360.891 60.9209 361.113 60.7085Z" fill="#403279"/>
<path d="M244.216 30.668C244.216 30.668 223.607 51.5762 223.501 77.4847C223.395 103.393 243.772 124.466 243.772 124.466C243.772 124.466 264.4 103.557 264.487 77.6585C264.574 51.7596 244.216 30.668 244.216 30.668Z" fill="#403279"/>
<path d="M198.915 89.918C198.915 89.918 198.789 106.946 209.205 117.767C219.62 128.588 236.629 129.109 236.629 129.109C236.629 129.109 236.764 112.081 226.348 101.26C215.933 90.4392 198.915 89.918 198.915 89.918Z" fill="#403279"/>
<g opacity="0.5">
<path d="M309.528 23.9971C309.586 23.9971 311.314 19.4409 311.391 19.1706C312.269 15.6666 311.893 8.37864 308.495 6.24534C307.915 5.91684 307.273 5.71217 306.609 5.64424C305.946 5.57632 305.276 5.64661 304.641 5.85067C304.006 6.05474 303.42 6.38816 302.921 6.82991C302.421 7.27165 302.018 7.81213 301.738 8.41725C300.474 10.9849 301.362 14.3924 302.578 16.8057C303.949 19.5857 309.528 23.9874 309.528 23.9971Z" fill="white"/>
<path d="M389.619 57.4052C386.79 54.5093 379.599 55.7063 376.365 57.3183C376.085 57.4535 371.963 60.1273 372.021 60.2142L372.079 60.2721C370.95 60.4555 369.724 60.6582 368.401 60.9092C365.959 61.4015 363.198 61.971 360.245 62.8398C357.044 63.6876 353.898 64.7289 350.823 65.9577C347.369 67.3076 344.042 68.9616 340.881 70.9L340.775 70.9772C341.547 70.0795 343.613 67.4829 343.757 67.2705C345.688 64.2105 347.619 57.1735 345.003 54.0749C344.55 53.5804 344 53.1854 343.387 52.9151C342.774 52.6449 342.111 52.5054 341.441 52.5054C340.771 52.5054 340.108 52.6449 339.494 52.9151C338.881 53.1854 338.331 53.5804 337.879 54.0749C335.881 56.1214 335.659 59.6254 336.064 62.2992C336.527 65.3013 340.128 70.8324 340.417 71.2765C337.25 73.3213 334.225 75.5788 331.363 78.0335C329.683 79.4622 328.042 80.9294 326.411 82.4546C327.048 81.6534 327.618 80.9391 327.685 80.8232C329.616 77.7632 331.546 70.7263 328.94 67.6277C328.488 67.1331 327.938 66.7381 327.324 66.4679C326.711 66.1977 326.048 66.0581 325.378 66.0581C324.708 66.0581 324.045 66.1977 323.432 66.4679C322.819 66.7381 322.268 67.1331 321.816 67.6277C319.818 69.6741 319.596 73.1878 320.001 75.852C320.407 78.5162 323.39 83.333 324.191 84.5396L322.337 86.2868C319.374 89.1055 316.43 91.9338 313.457 94.6173C312.414 95.5826 311.343 96.461 310.281 97.3587C310.85 96.6444 311.323 96.0459 311.391 95.9494C313.322 92.8894 315.252 85.8524 312.636 82.7442C312.187 82.2465 311.64 81.8478 311.028 81.5734C310.417 81.299 309.755 81.155 309.085 81.1504C308.415 81.1459 307.751 81.281 307.136 81.547C306.521 81.8131 305.968 82.2044 305.512 82.6959C303.524 84.7423 303.292 88.256 303.698 90.9202C304.103 93.5844 306.806 97.9379 307.752 99.4341C306.642 100.322 305.522 101.21 304.402 102.021C303.62 102.552 302.906 103.122 302.095 103.614L299.74 105.12C298.205 106.017 296.632 106.954 295.116 107.803C294.064 108.392 293.05 108.933 292.037 109.492C293.089 108.527 295.107 106.693 295.261 106.519C297.258 104.042 298.587 101.094 299.122 97.9572C299.358 97.6936 299.565 97.4056 299.74 97.0981C300.093 96.5289 300.323 95.8925 300.417 95.2294C300.511 94.5662 300.465 93.8909 300.284 93.2463C300.102 92.6016 299.788 92.0019 299.362 91.4851C298.936 90.9683 298.407 90.5458 297.809 90.2445C295.02 88.9607 290.734 90.7851 287.761 92.8991C287.886 90.843 287.828 89.5785 287.828 89.5785L287.046 89.6557L287.616 88.2946C288.002 87.4452 288.292 86.4992 288.629 85.5918C289.382 83.4681 290.039 81.2769 290.657 79.0664C292.056 79.7421 297.047 82.1071 299.759 82.2036C302.472 82.3001 305.918 81.6824 307.723 79.4622C308.16 78.9535 308.486 78.3594 308.681 77.7177C308.876 77.0759 308.934 76.4007 308.854 75.7349C308.773 75.0692 308.554 74.4276 308.211 73.8511C307.869 73.2746 307.41 72.7758 306.864 72.3866C303.485 70.1664 296.709 72.8789 293.89 75.1376C293.717 75.2824 291.873 77.1358 290.888 78.1687C291.245 76.8366 291.612 75.5045 291.931 74.1337C292.848 70.205 293.659 66.1894 294.489 62.1931C294.74 60.9671 295.01 59.7509 295.271 58.5249C295.763 58.7759 301.642 61.7104 304.673 61.8166C307.375 61.9131 310.831 61.2953 312.636 59.0752C313.072 58.5667 313.397 57.9733 313.59 57.3325C313.784 56.6917 313.842 56.0176 313.762 55.3531C313.681 54.6886 313.463 54.0482 313.121 53.4725C312.779 52.8968 312.322 52.3985 311.777 52.0092C308.399 49.7794 301.622 52.4918 298.804 54.7603C298.591 54.9244 295.908 57.5886 295.319 58.3029C295.888 55.6194 296.497 52.9455 297.192 50.3296C298.113 46.8013 299.268 43.338 300.647 39.9623C300.879 40.0782 306.999 43.1671 310.107 43.2733C312.8 43.3795 316.266 42.752 318.071 40.5318C318.506 40.0228 318.83 39.4288 319.023 38.7876C319.216 38.1465 319.274 37.4722 319.192 36.8076C319.11 36.1431 318.891 35.5028 318.548 34.9275C318.206 34.3522 317.747 33.8544 317.202 33.4659C313.824 31.2361 307.057 33.9485 304.238 36.217C304.016 36.3907 301.178 39.2577 300.696 39.8175C300.782 39.6245 300.84 39.4121 300.927 39.219C302.394 35.8493 304.161 32.6186 306.207 29.5661C307.318 27.8768 308.466 26.3131 309.625 24.8265C310.706 25.5215 315.677 28.6298 318.467 29.0448C321.256 29.4599 324.645 29.1896 326.681 27.1915C327.17 26.7332 327.559 26.1782 327.822 25.5616C328.084 24.9451 328.216 24.2806 328.208 23.6104C328.199 22.9402 328.052 22.2791 327.774 21.6691C327.496 21.0592 327.095 20.5138 326.594 20.0676C323.486 17.4806 316.459 19.4402 313.409 21.3804C313.244 21.4769 311.671 22.7415 310.513 23.6682C311.044 23.0118 311.574 22.3167 312.096 21.6893C314.026 19.334 315.957 17.2972 317.714 15.5114C318.679 14.5461 319.644 13.5808 320.484 12.7796C321.903 12.9051 327.608 13.3395 330.224 12.4418C332.84 11.5441 335.784 9.7293 336.662 7.00717C336.886 6.3757 336.975 5.70466 336.925 5.03674C336.875 4.36882 336.686 3.71865 336.371 3.12758C336.056 2.5365 335.622 2.01748 335.095 1.60352C334.569 1.18956 333.962 0.889726 333.313 0.723099C329.355 -0.136013 324.017 4.84491 322.202 7.96281C322.048 8.23309 320.088 12.741 320.156 12.7893H320.243C319.393 13.5615 318.496 14.411 317.53 15.3473C315.754 17.1041 313.775 19.1023 311.739 21.4287C309.542 23.907 307.492 26.5113 305.599 29.2282C303.466 32.2749 301.609 35.5053 300.049 38.8812L299.991 39.0067C300.145 37.829 300.445 34.5277 300.435 34.2671C300.358 30.6569 298.08 23.7261 294.199 22.5677C293.552 22.399 292.877 22.3668 292.216 22.4729C291.556 22.5791 290.924 22.8214 290.363 23.1845C289.801 23.5475 289.321 24.0234 288.952 24.582C288.584 25.1405 288.336 25.7694 288.224 26.4289C287.693 29.2282 289.44 32.2786 291.255 34.2864C293.292 36.5452 299.354 39.1129 299.836 39.3735C298.325 42.8218 297.051 46.3695 296.024 49.9917C295.406 52.1057 294.856 54.2487 294.325 56.4109C294.421 55.3877 294.498 54.4804 294.489 54.3452C294.412 50.735 292.133 43.8042 288.253 42.6458C287.606 42.4787 286.932 42.4476 286.273 42.5545C285.613 42.6614 284.983 42.904 284.423 43.2669C283.862 43.6299 283.383 44.1052 283.015 44.6629C282.648 45.2207 282.4 45.8486 282.287 46.507C281.747 49.3064 283.504 52.3567 285.309 54.3645C287.114 56.3723 292.269 58.7276 293.63 59.3358C293.437 60.1659 293.234 60.9864 293.041 61.8166C292.124 65.8033 291.236 69.7899 290.232 73.6607C289.884 75.0315 289.489 76.3636 289.102 77.6957C289.18 76.798 289.238 76.0257 289.238 75.9099C289.16 72.2997 286.882 65.3689 283.002 64.2105C282.355 64.0434 281.681 64.0123 281.021 64.1192C280.362 64.2261 279.732 64.4687 279.171 64.8316C278.611 65.1945 278.131 65.6699 277.764 66.2276C277.396 66.7853 277.149 67.4133 277.036 68.0717C276.496 70.8807 278.243 73.931 280.058 75.9388C281.872 77.9467 286.515 80.0703 288.127 80.7653C287.693 82.1264 287.249 83.4778 286.757 84.7713C286.409 85.6497 286.129 86.5185 285.724 87.3776L284.614 89.868C283.755 90.0128 282.76 90.2059 281.65 90.4569C281.361 86.8177 280 82.3773 277.229 81.0646C276.613 80.7995 275.947 80.666 275.276 80.6726C274.605 80.6792 273.943 80.8257 273.331 81.1028C272.72 81.3798 272.173 81.7814 271.726 82.2817C271.278 82.7821 270.94 83.3703 270.733 84.0087C269.768 86.7019 271.051 89.9839 272.538 92.233C272.755 92.5745 273.001 92.8974 273.272 93.1983C268.528 95.1331 264.262 98.078 260.771 101.828C250.761 113.025 251.514 130.034 251.514 130.034C251.514 130.034 265.713 129.069 275.801 120.381C278.899 118.914 282.905 116.964 287.49 114.502C289.209 113.595 291.023 112.572 292.877 111.52C293.369 112.128 297.356 117.07 300.01 118.412C302.423 119.638 305.802 120.516 308.389 119.261C308.995 118.982 309.536 118.58 309.979 118.081C310.422 117.582 310.756 116.996 310.961 116.361C311.166 115.726 311.237 115.056 311.17 114.392C311.103 113.728 310.899 113.085 310.571 112.504C308.437 109.068 301.149 108.701 297.645 109.608C297.443 109.666 295.261 110.477 293.89 111.008C294.643 110.574 295.386 110.159 296.159 109.695C297.694 108.797 299.199 107.861 300.821 106.857L303.147 105.303C303.929 104.801 304.702 104.174 305.483 103.604C307.279 102.253 309.036 100.786 310.773 99.2797C311.565 100.621 314.432 105.342 316.633 106.915C318.833 108.489 322.058 109.879 324.789 109.029C325.434 108.845 326.033 108.528 326.549 108.1C327.065 107.671 327.485 107.139 327.784 106.539C328.083 105.939 328.253 105.283 328.284 104.613C328.316 103.943 328.207 103.274 327.965 102.649C326.382 98.9322 319.229 97.4553 315.638 97.8221C315.407 97.8221 312.858 98.3723 311.459 98.6908C312.492 97.7738 313.534 96.8568 314.557 95.9011C317.453 93.1211 320.349 90.2252 323.245 87.3486C324.133 86.4606 325.031 85.5918 325.919 84.723C326.189 85.196 329.481 90.8913 331.952 92.6577C334.143 94.2312 337.377 95.6115 340.099 94.7621C340.743 94.5787 341.343 94.2632 341.858 93.8356C342.374 93.408 342.795 92.8776 343.095 92.2783C343.395 91.679 343.566 91.0239 343.599 90.3547C343.631 89.6854 343.524 89.0167 343.284 88.3912C341.692 84.6651 334.597 83.1979 330.948 83.5647C330.678 83.5647 327.01 84.3562 326.121 84.5975C328.052 82.6669 330.06 80.7364 332.077 78.9892C334.797 76.552 337.674 74.2948 340.688 72.2321C340.813 72.4541 344.221 78.41 346.75 80.2151C348.941 81.7885 352.175 83.1786 354.897 82.3194C355.541 82.1361 356.141 81.8205 356.656 81.3929C357.172 80.9653 357.593 80.435 357.893 79.8357C358.193 79.2364 358.364 78.5813 358.397 77.912C358.429 77.2428 358.322 76.5741 358.082 75.9485C356.49 72.2225 349.346 70.7552 345.746 71.122C345.466 71.122 341.518 71.9811 340.804 72.1838C340.987 72.0584 341.151 71.9232 341.325 71.8074C344.403 69.822 347.653 68.1163 351.036 66.7106C352.889 65.9094 354.704 65.2434 356.49 64.6449C357.011 65.8129 359.443 71.151 361.548 73.0333C363.652 74.9156 366.616 76.5663 369.415 76.0257C370.076 75.9139 370.707 75.6653 371.268 75.2959C371.828 74.9265 372.305 74.4444 372.668 73.8803C373.031 73.3163 373.273 72.6826 373.378 72.0199C373.482 71.3571 373.448 70.6798 373.276 70.0312C372.098 66.1701 365.158 63.9113 361.548 63.8534C361.345 63.8534 359.347 64.0271 357.889 64.1912C358.7 63.9306 359.53 63.641 360.312 63.4093C363.208 62.5213 365.978 61.8938 368.411 61.3533C369.791 61.054 371.046 60.8127 372.272 60.61C373.382 61.4884 377.909 65.0021 380.583 65.6971C383.257 66.3921 386.713 66.4983 388.952 64.7318C389.525 64.3288 390.002 63.8063 390.353 63.2003C390.703 62.5944 390.917 61.9195 390.98 61.2226C391.044 60.5256 390.955 59.8232 390.719 59.164C390.484 58.5049 390.109 57.9047 389.619 57.4052ZM286.429 112.321C284.324 113.392 282.336 114.367 280.502 115.217C283.607 110.712 285.741 105.61 286.766 100.235C287.317 100.37 287.876 100.486 288.436 100.592C288.6 103.633 291.023 109.039 291.332 109.734C289.653 110.66 288.002 111.568 286.429 112.321Z" fill="white"/>
<path d="M361.113 60.7076C363.777 58.2654 367.493 52.0199 365.804 48.3132C365.503 47.7151 365.08 47.1863 364.563 46.7603C364.047 46.3343 363.447 46.0206 362.802 45.839C362.157 45.6574 361.482 45.612 360.819 45.7056C360.156 45.7991 359.519 46.0297 358.95 46.3826C356.489 47.8305 355.34 51.1512 355.031 53.8347C354.664 56.9815 356.885 63.7289 356.885 63.7289C356.885 63.7289 360.891 60.9199 361.113 60.7076Z" fill="white"/>
<path d="M244.216 30.668C244.216 30.668 223.607 51.5762 223.501 77.4847C223.395 103.393 243.772 124.466 243.772 124.466C243.772 124.466 264.4 103.557 264.487 77.6585C264.574 51.7596 244.216 30.668 244.216 30.668Z" fill="white"/>
<path d="M198.915 89.918C198.915 89.918 198.789 106.946 209.205 117.767C219.62 128.588 236.629 129.109 236.629 129.109C236.629 129.109 236.764 112.081 226.348 101.26C215.933 90.4392 198.915 89.918 198.915 89.918Z" fill="white"/>
</g>
<path d="M257.17 100.961L256.514 100.111L244.39 109.629L244.486 88.6918L261.331 73.7877L260.616 72.9865L244.486 87.2535L244.592 64.2602L255.935 54.4335L255.24 53.6227L244.592 62.8316L244.737 30.668H243.666L243.453 78.0543L230.113 58.5457L229.225 59.1442L243.366 79.8111L243.453 79.7532L243.366 99.4452L227.362 85.0527L226.647 85.8538L243.357 100.883V100.874L243.26 124.466L244.332 124.475L244.39 110.99L257.17 100.961Z" fill="white"/>
<path d="M288.213 89.8208L287.422 89.1064L269.583 109.049L271.205 96.1627L270.143 96.0373L268.328 110.439H268.338L261.166 118.461L259.814 106.559L258.753 106.675L260.21 119.533L251.156 129.649L251.957 130.363L257.102 124.62L266.398 125.18L266.456 124.108L258.009 123.596L265.722 114.976L278.667 114.986V113.915L266.678 113.895L275.163 104.416L283.763 104.522L283.783 103.451L276.118 103.354L288.213 89.8208Z" fill="white"/>
<path d="M232.922 113.954L231.86 113.81L230.721 122.198L222.699 113.858L223.684 100.952L222.612 100.875L221.705 112.825L212.873 103.655L213.626 95.0829L212.554 94.996L211.888 102.631L199.301 89.5518L198.528 90.295L217.081 109.572L204.359 106.985L204.146 108.037L218.375 110.923V110.904L225.836 118.665L213.867 119.119L213.905 120.19L226.831 119.698L236.242 129.476L237.015 128.733L231.677 123.183L232.922 113.954Z" fill="white"/>
<path d="M240.75 369.948L364.009 323.7L364.897 313.845L242.546 360.082L240.75 369.948Z" fill="#403279" stroke="#403279" stroke-width="1.13593" stroke-linecap="round" stroke-linejoin="round"/>
<path d="M219.996 206.465C217.83 206.448 215.737 205.685 214.069 204.303C211.974 202.574 210.597 200.128 210.208 197.44C210.159 196.959 210.297 196.479 210.592 196.097C210.888 195.716 211.318 195.462 211.795 195.389C212.273 195.316 212.759 195.429 213.156 195.704C213.552 195.98 213.827 196.397 213.924 196.87C214.176 198.633 215.074 200.24 216.444 201.378C217.039 201.892 217.74 202.27 218.496 202.487C219.252 202.704 220.046 202.753 220.824 202.633C221.601 202.513 222.343 202.225 222.998 201.79C223.654 201.355 224.207 200.783 224.62 200.113C224.904 199.719 225.33 199.45 225.808 199.363C226.286 199.276 226.779 199.377 227.185 199.645C227.59 199.913 227.876 200.328 227.983 200.802C228.089 201.276 228.008 201.773 227.757 202.189C227.052 203.294 226.121 204.236 225.024 204.954C223.927 205.671 222.69 206.147 221.396 206.349C220.933 206.427 220.465 206.465 219.996 206.465Z" fill="#403279"/>
<path d="M202.206 211.961C197.447 211.961 193.19 208.177 192.389 202.945C192.351 202.701 192.361 202.453 192.418 202.213C192.476 201.973 192.581 201.748 192.726 201.549C192.871 201.349 193.055 201.181 193.265 201.053C193.476 200.925 193.709 200.839 193.953 200.802C194.445 200.737 194.944 200.864 195.344 201.157C195.745 201.45 196.018 201.886 196.106 202.375C196.665 206.053 199.764 208.64 202.998 208.167C203.774 208.04 204.514 207.75 205.17 207.316C205.826 206.882 206.382 206.313 206.801 205.647C207.085 205.253 207.511 204.984 207.989 204.897C208.467 204.81 208.961 204.911 209.366 205.179C209.771 205.447 210.057 205.862 210.164 206.336C210.271 206.81 210.19 207.307 209.938 207.723C209.234 208.828 208.302 209.77 207.205 210.488C206.109 211.205 204.872 211.681 203.577 211.883C203.123 211.947 202.664 211.972 202.206 211.961Z" fill="#403279"/>
<path d="M185.931 218.203C183.767 218.189 181.673 217.429 180.004 216.051C177.911 214.321 176.535 211.875 176.143 209.188C176.094 208.707 176.232 208.227 176.527 207.845C176.823 207.464 177.253 207.21 177.731 207.137C178.208 207.064 178.694 207.177 179.091 207.452C179.487 207.728 179.762 208.145 179.859 208.618C180.111 210.381 181.009 211.988 182.379 213.126C182.981 213.63 183.682 214.003 184.437 214.219C185.192 214.435 185.984 214.49 186.761 214.381C187.536 214.254 188.275 213.964 188.929 213.53C189.583 213.095 190.138 212.527 190.555 211.861C190.87 211.556 191.281 211.367 191.718 211.326C192.156 211.285 192.594 211.395 192.961 211.636C193.328 211.878 193.601 212.238 193.736 212.656C193.87 213.075 193.858 213.526 193.702 213.937C192.994 215.041 192.061 215.983 190.962 216.7C189.864 217.418 188.626 217.894 187.331 218.097C186.868 218.172 186.4 218.207 185.931 218.203Z" fill="#403279"/>
<path d="M168.141 223.301C163.382 223.301 159.125 219.507 158.324 214.285C158.274 214.036 158.275 213.78 158.327 213.531C158.379 213.283 158.481 213.047 158.626 212.839C158.771 212.631 158.957 212.454 159.173 212.32C159.388 212.185 159.629 212.096 159.88 212.057C160.13 212.018 160.387 212.03 160.633 212.092C160.879 212.155 161.11 212.266 161.312 212.42C161.514 212.574 161.682 212.768 161.807 212.989C161.932 213.21 162.012 213.454 162.04 213.706C162.609 217.384 165.698 219.971 168.932 219.498C169.707 219.371 170.447 219.082 171.102 218.65C171.758 218.217 172.314 217.651 172.735 216.988C172.862 216.764 173.034 216.568 173.24 216.413C173.446 216.258 173.681 216.146 173.932 216.086C174.183 216.026 174.443 216.017 174.697 216.062C174.951 216.106 175.193 216.202 175.408 216.344C175.624 216.485 175.808 216.67 175.949 216.886C176.09 217.101 176.185 217.344 176.228 217.598C176.272 217.852 176.263 218.112 176.202 218.363C176.14 218.613 176.028 218.848 175.873 219.054C175.167 220.158 174.235 221.101 173.139 221.82C172.042 222.539 170.806 223.017 169.511 223.224C169.057 223.283 168.599 223.308 168.141 223.301Z" fill="#403279"/>
<path d="M149.925 230.541C145.176 230.541 140.919 226.757 140.108 221.525C140.138 221.087 140.316 220.672 140.613 220.348C140.91 220.025 141.309 219.812 141.743 219.746C142.177 219.679 142.621 219.763 143.001 219.983C143.382 220.203 143.675 220.546 143.834 220.956C144.394 224.633 147.493 227.211 150.727 226.747C151.502 226.619 152.242 226.328 152.898 225.894C153.553 225.46 154.109 224.892 154.53 224.228C154.814 223.834 155.24 223.565 155.718 223.478C156.196 223.39 156.69 223.491 157.095 223.759C157.5 224.028 157.786 224.442 157.893 224.916C157.999 225.39 157.919 225.887 157.667 226.303C156.961 227.407 156.029 228.349 154.933 229.066C153.836 229.783 152.6 230.259 151.306 230.464C150.848 230.523 150.387 230.548 149.925 230.541Z" fill="#403279"/>
<path d="M132.29 236.997C130.125 236.984 128.032 236.224 126.363 234.845C124.27 233.115 122.894 230.669 122.502 227.982C122.453 227.501 122.591 227.021 122.886 226.639C123.182 226.258 123.612 226.004 124.089 225.931C124.566 225.858 125.053 225.971 125.45 226.246C125.846 226.522 126.121 226.939 126.218 227.412C126.47 229.175 127.368 230.782 128.738 231.92C129.333 232.434 130.033 232.812 130.79 233.029C131.546 233.245 132.34 233.295 133.118 233.175C133.895 233.055 134.637 232.767 135.292 232.332C135.948 231.897 136.501 231.325 136.914 230.655C137.229 230.35 137.64 230.161 138.077 230.12C138.515 230.079 138.953 230.188 139.32 230.43C139.687 230.672 139.96 231.032 140.095 231.45C140.229 231.869 140.217 232.32 140.061 232.731C139.353 233.835 138.419 234.777 137.321 235.494C136.223 236.211 134.985 236.688 133.69 236.891C133.227 236.965 132.759 237.001 132.29 236.997Z" fill="#403279"/>
<path d="M244.128 363.934L346.131 326.355" stroke="#403279" stroke-width="0.567964" stroke-linecap="round" stroke-linejoin="round"/>
<path d="M241.445 367.071L306.757 342.91" stroke="#403279" stroke-width="0.567964" stroke-linecap="round" stroke-linejoin="round"/>
<path d="M117.936 232.665V244.316L240.75 369.949L242.545 360.084L117.936 232.665Z" fill="#403279" stroke="#403279" stroke-width="1.13593" stroke-linecap="round" stroke-linejoin="round"/>
<path d="M119.76 241.806L192.688 314.724" stroke="#403279" stroke-width="0.567964" stroke-linecap="round" stroke-linejoin="round"/>
<path d="M154.212 273.119L230.258 350.96" stroke="#403279" stroke-width="0.567964" stroke-linecap="round" stroke-linejoin="round"/>
<path d="M117.936 232.665L242.545 360.084L364.896 313.846L238.086 192.315L117.936 232.665Z" fill="white" stroke="#403279" stroke-width="1.13593" stroke-linecap="round" stroke-linejoin="round"/>
<path d="M116.411 230.656L1 122.939L119.22 86.0742L237.179 190.394L116.411 230.656Z" fill="#403279" stroke="#403279" stroke-width="1.13593" stroke-linecap="round" stroke-linejoin="round"/>
<path d="M18.6646 123.654L52.4499 113.132" stroke="#403279" stroke-width="1.21052" stroke-linecap="round" stroke-linejoin="round"/>
<path d="M23.6558 127.533L57.4411 117.012" stroke="#403279" stroke-width="1.21052" stroke-linecap="round" stroke-linejoin="round"/>
<path d="M138.478 233.571C138.11 233.574 137.751 233.466 137.445 233.263C137.037 232.981 136.754 232.553 136.654 232.067C136.553 231.582 136.643 231.077 136.904 230.656C137.869 229.159 138.24 227.355 137.947 225.598C137.783 224.266 137.226 223.013 136.348 221.999C135.469 220.985 134.309 220.255 133.014 219.903C132.547 219.775 132.147 219.472 131.897 219.056C131.648 218.64 131.568 218.145 131.675 217.672C131.782 217.199 132.068 216.786 132.472 216.518C132.876 216.251 133.367 216.149 133.844 216.235C135.876 216.755 137.706 217.87 139.101 219.437C140.495 221.003 141.391 222.95 141.673 225.029C142.114 227.715 141.536 230.469 140.051 232.751C139.874 233.004 139.638 233.21 139.364 233.353C139.09 233.495 138.786 233.571 138.478 233.571Z" fill="#403279"/>
<path d="M156.094 227.114C155.727 227.116 155.367 227.009 155.061 226.805C154.854 226.67 154.676 226.494 154.538 226.29C154.399 226.085 154.302 225.855 154.253 225.613C154.203 225.37 154.202 225.121 154.25 224.878C154.298 224.635 154.393 224.404 154.53 224.199C155.49 222.699 155.862 220.898 155.573 219.141C155.409 217.809 154.852 216.556 153.974 215.542C153.095 214.527 151.935 213.798 150.64 213.445C150.388 213.404 150.146 213.311 149.931 213.172C149.715 213.034 149.53 212.853 149.387 212.641C149.244 212.429 149.146 212.189 149.098 211.938C149.051 211.686 149.055 211.427 149.111 211.178C149.167 210.928 149.273 210.692 149.423 210.484C149.573 210.277 149.764 210.102 149.984 209.971C150.204 209.84 150.449 209.755 150.702 209.722C150.956 209.689 151.214 209.708 151.461 209.777C153.492 210.298 155.323 211.413 156.717 212.979C158.112 214.546 159.007 216.493 159.289 218.571C159.73 221.257 159.152 224.012 157.668 226.293C157.49 226.546 157.254 226.752 156.981 226.895C156.707 227.038 156.403 227.113 156.094 227.114Z" fill="#403279"/>
<path d="M226.183 203.039C225.853 203.022 225.532 202.921 225.252 202.745C224.972 202.568 224.742 202.323 224.584 202.032C224.426 201.742 224.345 201.415 224.35 201.084C224.354 200.753 224.444 200.429 224.61 200.143C225.575 198.649 225.947 196.848 225.652 195.094C225.49 193.761 224.935 192.506 224.056 191.49C223.177 190.474 222.016 189.742 220.72 189.39C220.479 189.337 220.251 189.237 220.048 189.096C219.846 188.955 219.674 188.775 219.542 188.566C219.41 188.358 219.321 188.126 219.279 187.882C219.238 187.639 219.245 187.39 219.301 187.15C219.42 186.669 219.721 186.252 220.139 185.986C220.558 185.72 221.063 185.625 221.55 185.721C223.581 186.242 225.412 187.357 226.806 188.924C228.201 190.49 229.096 192.437 229.378 194.515C229.82 197.203 229.238 199.958 227.747 202.238C227.572 202.489 227.338 202.694 227.066 202.834C226.793 202.974 226.49 203.044 226.183 203.039Z" fill="#403279"/>
<path d="M208.365 208.513C207.998 208.516 207.638 208.408 207.332 208.204C207.125 208.069 206.947 207.894 206.809 207.689C206.67 207.484 206.573 207.254 206.524 207.012C206.474 206.77 206.473 206.52 206.521 206.277C206.569 206.035 206.664 205.804 206.801 205.598C207.762 204.099 208.134 202.297 207.844 200.54C207.68 199.208 207.123 197.955 206.245 196.941C205.366 195.927 204.206 195.197 202.911 194.845C202.659 194.803 202.417 194.71 202.202 194.572C201.986 194.433 201.801 194.252 201.658 194.04C201.515 193.828 201.417 193.589 201.369 193.337C201.322 193.085 201.326 192.827 201.382 192.577C201.438 192.327 201.544 192.091 201.694 191.884C201.844 191.676 202.035 191.502 202.255 191.371C202.475 191.24 202.72 191.155 202.973 191.122C203.227 191.088 203.485 191.107 203.732 191.177C205.765 191.695 207.596 192.809 208.991 194.376C210.386 195.943 211.281 197.891 211.56 199.971C212.001 202.657 211.423 205.411 209.938 207.693C209.761 207.945 209.525 208.152 209.252 208.295C208.978 208.437 208.674 208.512 208.365 208.513Z" fill="#403279"/>
<path d="M192.09 214.786C191.721 214.785 191.362 214.674 191.057 214.467C190.649 214.185 190.366 213.757 190.266 213.272C190.165 212.787 190.255 212.282 190.516 211.861C191.486 210.365 191.861 208.561 191.568 206.803C191.405 205.471 190.848 204.218 189.97 203.204C189.091 202.19 187.931 201.46 186.636 201.108C186.383 201.066 186.142 200.973 185.926 200.834C185.711 200.696 185.526 200.515 185.383 200.303C185.24 200.091 185.141 199.851 185.094 199.6C185.046 199.348 185.051 199.089 185.106 198.84C185.162 198.59 185.269 198.354 185.419 198.147C185.569 197.939 185.76 197.765 185.98 197.633C186.2 197.502 186.444 197.418 186.698 197.384C186.952 197.351 187.21 197.37 187.456 197.439C189.488 197.96 191.318 199.075 192.713 200.641C194.107 202.208 195.003 204.155 195.285 206.233C195.726 208.92 195.148 211.674 193.663 213.956C193.487 214.21 193.252 214.418 192.978 214.563C192.704 214.707 192.399 214.784 192.09 214.786Z" fill="#403279"/>
<path d="M174.299 219.874C173.933 219.872 173.574 219.765 173.266 219.566C173.06 219.43 172.882 219.255 172.743 219.05C172.604 218.845 172.507 218.615 172.458 218.373C172.409 218.131 172.408 217.881 172.455 217.638C172.503 217.396 172.598 217.165 172.736 216.959C173.696 215.46 174.067 213.658 173.778 211.901C173.614 210.569 173.058 209.316 172.179 208.302C171.301 207.288 170.14 206.558 168.845 206.206C168.556 206.206 168.271 206.141 168.01 206.016C167.749 205.891 167.519 205.709 167.338 205.483C167.157 205.257 167.03 204.994 166.964 204.712C166.899 204.43 166.897 204.137 166.96 203.855C167.023 203.573 167.149 203.308 167.328 203.081C167.507 202.853 167.735 202.669 167.995 202.542C168.254 202.415 168.539 202.347 168.829 202.345C169.118 202.342 169.404 202.405 169.666 202.528C171.699 203.045 173.532 204.159 174.927 205.726C176.322 207.293 177.216 209.242 177.494 211.322C177.937 214.008 177.358 216.763 175.873 219.044C175.696 219.299 175.461 219.507 175.187 219.651C174.914 219.796 174.609 219.872 174.299 219.874Z" fill="#403279"/>
<path d="M341.343 310.902L346.093 309.155" stroke="#403279" stroke-width="0.567964" stroke-linecap="round" stroke-linejoin="round"/>
<path d="M247.584 345.535L337.028 312.503" stroke="#403279" stroke-width="0.567964" stroke-linecap="round" stroke-linejoin="round"/>
<path d="M250.094 330.604L335.455 299.077" stroke="#403279" stroke-width="0.567964" stroke-linecap="round" stroke-linejoin="round"/>
<path d="M236.947 335.459L244.418 332.698" stroke="#403279" stroke-width="0.567964" stroke-linecap="round" stroke-linejoin="round"/>
<path d="M226.31 325.383L324.828 289.001" stroke="#403279" stroke-width="0.567964" stroke-linecap="round" stroke-linejoin="round"/>
<path d="M215.681 315.313L314.189 278.931" stroke="#403279" stroke-width="0.567964" stroke-linecap="round" stroke-linejoin="round"/>
<path d="M299.421 270.379L303.553 268.854" stroke="#403279" stroke-width="0.567964" stroke-linecap="round" stroke-linejoin="round"/>
<path d="M205.044 305.234L293.513 272.559" stroke="#403279" stroke-width="0.567964" stroke-linecap="round" stroke-linejoin="round"/>
<path d="M194.407 295.157L292.925 258.775" stroke="#403279" stroke-width="0.567964" stroke-linecap="round" stroke-linejoin="round"/>
<path d="M183.769 285.089L282.287 248.707" stroke="#403279" stroke-width="0.567964" stroke-linecap="round" stroke-linejoin="round"/>
<path d="M173.141 275.012L271.649 238.63" stroke="#403279" stroke-width="0.567964" stroke-linecap="round" stroke-linejoin="round"/>
<path d="M162.503 264.934L261.011 228.552" stroke="#403279" stroke-width="0.567964" stroke-linecap="round" stroke-linejoin="round"/>
<path d="M246.89 219.769L250.384 218.476" stroke="#403279" stroke-width="0.567964" stroke-linecap="round" stroke-linejoin="round"/>
<path d="M151.866 254.857L243.858 220.889" stroke="#403279" stroke-width="0.567964" stroke-linecap="round" stroke-linejoin="round"/>
<path d="M170.641 233.918L239.746 208.405" stroke="#403279" stroke-width="0.567964" stroke-linecap="round" stroke-linejoin="round"/>
<path d="M141.238 244.787L160.264 237.76" stroke="#403279" stroke-width="0.567964" stroke-linecap="round" stroke-linejoin="round"/>
<g style="mix-blend-mode:multiply">
<path d="M175.41 270.841C185.381 272.144 184.503 255.077 181.974 249.353C180.129 251.468 178.754 253.95 177.94 256.636C177.126 259.322 176.892 262.15 177.253 264.933C177.358 266.233 177.812 267.48 178.566 268.543C178.948 269.07 179.477 269.471 180.087 269.698C180.697 269.925 181.36 269.966 181.993 269.817C182.901 269.433 183.669 268.779 184.194 267.945C186.028 265.512 187.244 262.5 189.175 260.271C191.849 262.076 201.347 265.165 199.976 258.523C199.223 254.855 201.048 255.27 203.007 257.066C203.818 257.799 205.092 257.404 206.096 256.96L215.749 252.712C216.978 252.086 218.308 251.684 219.678 251.525C224.311 251.293 227.343 255.599 231.889 252.558C233.82 251.284 234.264 247.828 236.716 246.515C238.463 245.55 240.519 245.492 242.507 245.222C249.342 244.314 252.836 240.704 259.149 237.441" stroke="#403279" stroke-width="1.13593" stroke-linecap="round" stroke-linejoin="round"/>
</g>
<g style="mix-blend-mode:multiply">
<path d="M183.151 281.509C186.887 282.146 190.082 278.738 193.383 277.648C197.601 276.238 199.435 274.52 203.49 272.773C208.847 270.475 215.141 269.414 214.021 261.315C213.258 264.211 213.172 267.396 212.583 270.427C216.927 272.58 218.095 268.883 218.539 265.601C219.997 265.564 221.437 265.273 222.796 264.742C222.796 265.35 222.989 266.035 222.979 266.614C225.064 267.454 225.875 266.885 226.309 265.041C228.616 264.606 229.437 262.444 231.387 261.913C231.879 267.329 233.259 272.068 232.941 277.609C229.244 278.574 228.664 272.194 229.601 269.549C230.566 266.749 233.346 265.253 234.369 262.328C234.582 262.686 234.418 263.101 234.533 263.487C239.186 260.707 245.152 261.46 249.766 258.207C251.214 257.183 252.247 255.137 253.781 254.423C257.121 252.878 258.116 254.693 260.606 251.054" stroke="#403279" stroke-width="1.13593" stroke-linecap="round" stroke-linejoin="round"/>
</g>
<g style="mix-blend-mode:multiply">
<path d="M216.782 313.314C223.491 311.384 226.435 294.713 224.504 288.593C222.245 281.189 219.137 289.307 218.413 293.284C217.834 296.47 216.907 304.868 219.88 307.291C226.473 312.638 230.499 301.644 231.309 296.673C231.599 299.781 229.726 303.613 230.489 306.963C235.827 307.59 238.472 303.15 238.134 298.564C238.797 299.199 239.246 300.024 239.419 300.925C239.592 301.826 239.48 302.759 239.099 303.594C244.196 303.237 243.356 294.636 243.926 291.17C243.636 293.593 243.858 296.431 245.49 298.391C246.851 300.012 249.447 300.727 251.156 299.472C252.864 298.217 252.527 294.916 250.451 294.481V315.38C250.517 315.984 250.395 316.594 250.104 317.127C249.418 318.092 247.739 317.89 246.957 316.963C246.268 315.952 245.945 314.736 246.04 313.517C245.943 306.673 248.057 297.3 253.357 292.628C253.629 293.294 253.719 294.02 253.617 294.732C254.125 294.535 254.583 294.229 254.961 293.838C255.34 293.446 255.629 292.978 255.809 292.464C256.156 293.999 257.064 295.929 258.618 295.659C259.133 295.524 259.605 295.258 259.988 294.887C262.537 292.782 265.297 291.392 267.006 288.4C267.247 289.153 267.498 289.906 267.749 290.668C268.155 289.211 269.545 288.255 270.906 287.599C272.982 286.623 275.227 286.056 277.518 285.929C279.449 285.832 281.553 286.035 283.31 285.205C284.088 284.789 284.834 284.315 285.54 283.786C287.54 282.468 289.856 281.708 292.248 281.585" stroke="#403279" stroke-width="1.13593" stroke-linecap="round" stroke-linejoin="round"/>
</g>
<path d="M137.251 129.997C137.251 129.997 152.648 110.595 157.86 103.655C163.073 96.7141 166.847 91.376 166.847 91.376C166.847 91.376 169.627 93.5672 168.778 96.0576C167.928 98.5481 149.617 123.559 145.543 129.911C141.47 136.262 142.039 144.303 142.338 147.073C142.638 149.844 134.558 140.789 137.251 129.997Z" fill="white" stroke="#403279" stroke-width="1.27267" stroke-linecap="round" stroke-linejoin="round"/>
<path d="M166.847 91.3762C166.847 91.3762 176.433 78.0455 183.547 66.9446C190.661 55.8437 201.048 39.1731 203.519 36.9529C205.99 34.7327 206.588 40.5245 205.787 44.405C204.986 48.2854 196.482 59.116 190.738 67.9968C184.995 76.8775 181.442 83.2677 176.5 89.0981C171.558 94.9285 171.847 95.2084 168.778 96.0579C165.708 96.9073 166.307 93.8666 166.847 91.3762Z" fill="#403279" stroke="#403279" stroke-width="1.27267" stroke-linecap="round" stroke-linejoin="round"/>
<path d="M133.94 131.948C135.002 124.757 137.406 111.475 142.898 107.295C148.391 103.115 165.013 106.33 166.394 106.581C167.774 106.831 189.648 111.677 196.318 115.78C202.988 119.882 207.467 131.736 209.176 138.599C210.884 145.463 214.552 157.085 215.102 157.905C215.102 157.905 220.653 160.347 223.694 160.058C226.734 159.768 230.779 145.636 239.293 137.287C247.807 128.937 252.228 127.798 261.63 128.599C271.032 129.4 306.747 139.082 310.367 142.644C313.987 146.206 316.246 154.227 315.464 160.019C314.682 165.811 315.821 172.182 315.821 173.282C315.821 174.383 319.171 177.964 318.36 181.005C317.549 184.045 317.047 190.658 314.566 191.536C312.086 192.414 293.832 191.951 280.279 190.107C266.726 188.264 247.874 180.088 235.393 174.373C222.912 168.659 216.821 166.197 207.699 166.265C198.577 166.332 180.892 166.718 164.56 162.954C148.227 159.189 137.126 152.335 134.056 149.333C130.987 146.331 132.888 139.15 133.94 131.948ZM231.744 165.85C236.213 172.462 254.226 178.978 263.917 181.671C273.609 184.364 296.853 189.19 302.915 185.841C308.977 182.491 312.163 162.558 311.603 155.646C311.043 148.735 308.215 144.893 308.215 144.893C296.274 137.509 258.907 129.738 251.185 132.837C243.463 135.935 236.078 145.926 233.366 153.957C230.653 161.988 231.744 165.85 231.744 165.85ZM153.719 154.488C165.65 161.593 184.464 163.678 191.926 163.909C199.387 164.141 206.55 160.222 206.772 151.65C206.994 143.078 202.476 128.734 200.787 124.622C199.098 120.51 193.557 118.039 193.557 118.039C186.076 114.496 155.061 106.687 149.81 107.555C144.559 108.424 139.964 116.398 138.892 128.049C137.821 139.7 141.788 147.383 153.719 154.488Z" fill="#403279" stroke="#403279" stroke-width="1.27267" stroke-linecap="round" stroke-linejoin="round"/>
<path d="M314.991 173.04C314.991 173.04 318.061 177.722 320.252 174.392C322.443 171.061 350.707 139.361 350.707 139.361C350.707 139.361 351.807 139.071 351.547 141.292C351.286 143.512 321.7 183.234 320.599 185.174C319.499 187.114 314.808 187.703 313.707 186.882C312.607 186.062 314.991 173.04 314.991 173.04Z" fill="white" stroke="#403279" stroke-width="1.27267" stroke-linecap="round" stroke-linejoin="round"/>
<path d="M348.776 140.472C350.391 137.596 351.848 134.635 353.139 131.6C356.132 124.95 357.966 111.947 358.449 98.3943C358.931 84.8416 359.414 76.8297 361.914 79.3008C364.414 81.772 362.271 95.0641 361.808 105.557C361.345 116.05 358.082 126.591 357.29 132.131C356.692 136.311 353.487 142.933 351.276 142.943C349.066 142.952 349.346 142.402 348.776 140.472Z" fill="#403279" stroke="#403279" stroke-width="1.27267" stroke-linecap="round" stroke-linejoin="round"/>
<path d="M166.393 313.742L178.546 327.497L160.476 323.424L31.8989 244.762L37.8258 235.08L166.393 313.742Z" fill="white" stroke="#403279" stroke-width="1.4364" stroke-linecap="round" stroke-linejoin="round"/>
<g style="mix-blend-mode:multiply" opacity="0.5">
<path d="M166.393 313.742L178.546 327.497L160.476 323.424L31.8989 244.762L37.8258 235.08L166.393 313.742Z" fill="#403279"/>
<path d="M166.393 313.742L178.546 327.497L160.476 323.424L31.8989 244.762L37.8258 235.08L166.393 313.742Z" stroke="#403279" stroke-width="1.4364" stroke-linecap="round" stroke-linejoin="round"/>
</g>
<path d="M36.4798 237.284L33.2505 242.562L161.825 321.229L165.054 315.951L36.4798 237.284Z" stroke="#403279" stroke-width="0.718198" stroke-linecap="round" stroke-linejoin="round"/>
<path d="M166.423 313.771L160.505 323.434L178.547 327.498L166.423 313.771Z" fill="white" stroke="#403279" stroke-width="1.4364" stroke-linecap="round" stroke-linejoin="round"/>
<path d="M169.521 325.461L178.547 327.498L172.484 320.635L169.521 325.461Z" fill="#403279" stroke="#403279" stroke-width="1.4364" stroke-linecap="round" stroke-linejoin="round"/>
<path d="M20.4702 231.114C20.0803 231.749 19.8194 232.454 19.7025 233.19C19.5856 233.926 19.615 234.678 19.7889 235.402C19.9629 236.126 20.278 236.809 20.7162 237.412C21.1544 238.015 21.7072 238.525 22.3429 238.913L31.8993 244.763L37.8262 235.11L28.2698 229.26C26.9892 228.474 25.449 228.227 23.9868 228.575C22.5247 228.922 21.26 229.835 20.4702 231.114Z" fill="white" stroke="#403279" stroke-width="1.4364" stroke-linecap="round" stroke-linejoin="round"/>
<path d="M20.4702 231.114C20.0803 231.749 19.8194 232.454 19.7025 233.19C19.5856 233.926 19.615 234.678 19.7889 235.402C19.9629 236.126 20.278 236.809 20.7162 237.412C21.1544 238.015 21.7072 238.525 22.3429 238.913L26.9183 241.713L32.8453 232.06L28.2698 229.26C26.9892 228.474 25.449 228.227 23.9868 228.575C22.5247 228.922 21.26 229.835 20.4702 231.114Z" fill="#403279" stroke="#403279" stroke-width="1.4364" stroke-linecap="round" stroke-linejoin="round"/>
<path d="M279.932 185.021L276.543 182.636C276.019 182.269 275.419 182.024 274.787 181.92C274.156 181.817 273.509 181.857 272.895 182.038C269.313 183.081 262.556 185.735 260.626 187.83C258.116 190.417 257.324 195.098 258.531 197.299C259.738 199.5 264.69 202.309 264.69 202.309L285.434 189.683L279.932 185.021Z" fill="white" stroke="#403279" stroke-width="0.9473" stroke-miterlimit="10"/>
<g style="mix-blend-mode:multiply" opacity="0.5">
<path d="M279.932 185.021L276.543 182.636C276.019 182.269 275.419 182.024 274.787 181.92C274.156 181.817 273.509 181.857 272.895 182.038C269.313 183.081 262.556 185.735 260.626 187.83C258.116 190.417 257.324 195.098 258.531 197.299C259.738 199.5 264.69 202.309 264.69 202.309L285.434 189.683L279.932 185.021Z" fill="#403279"/>
<path d="M279.932 185.021L276.543 182.636C276.019 182.269 275.419 182.024 274.787 181.92C274.156 181.817 273.509 181.857 272.895 182.038C269.313 183.081 262.556 185.735 260.626 187.83C258.116 190.417 257.324 195.098 258.531 197.299C259.738 199.5 264.69 202.309 264.69 202.309L285.434 189.683L279.932 185.021Z" stroke="#403279" stroke-width="0.9473" stroke-miterlimit="10"/>
</g>
<path d="M282.046 184.044L265.636 191.544C265.636 191.544 260.085 194.681 261.842 204.286L357.937 275.042C357.937 275.042 361.277 277.474 367.31 275.418C373.343 273.362 379.521 266.248 380.824 260.234C382.128 254.22 377.928 252.328 377.147 251.662C376.365 250.996 285.289 184.758 285.289 184.758C284.327 184.144 283.177 183.891 282.046 184.044Z" fill="white" stroke="#403279" stroke-width="0.9473" stroke-miterlimit="10"/>
<g style="mix-blend-mode:multiply" opacity="0.5">
<path d="M282.046 184.044L265.636 191.544C265.636 191.544 260.085 194.681 261.842 204.286L357.937 275.042C357.937 275.042 361.277 277.474 367.31 275.418C373.343 273.362 379.521 266.248 380.824 260.234C382.128 254.22 377.928 252.328 377.147 251.662C376.365 250.996 285.289 184.758 285.289 184.758C284.327 184.144 283.177 183.891 282.046 184.044Z" fill="#403279"/>
<path d="M282.046 184.044L265.636 191.544C265.636 191.544 260.085 194.681 261.842 204.286L357.937 275.042C357.937 275.042 361.277 277.474 367.31 275.418C373.343 273.362 379.521 266.248 380.824 260.234C382.128 254.22 377.928 252.328 377.147 251.662C376.365 250.996 285.289 184.758 285.289 184.758C284.327 184.144 283.177 183.891 282.046 184.044Z" stroke="#403279" stroke-width="0.9473" stroke-miterlimit="10"/>
</g>
<path d="M374.357 270.429C368.305 276.076 360.978 278.065 357.947 274.86C354.916 271.655 357.416 264.464 363.468 258.807C369.521 253.151 376.847 251.172 379.878 254.377C382.91 257.581 380.4 264.773 374.357 270.429Z" fill="white" stroke="#403279" stroke-width="0.9473" stroke-miterlimit="10"/>
<g style="mix-blend-mode:multiply">
<path d="M374.357 270.429C368.305 276.076 360.978 278.065 357.947 274.86C354.916 271.655 357.416 264.464 363.468 258.807C369.521 253.151 376.847 251.172 379.878 254.377C382.91 257.581 380.4 264.773 374.357 270.429Z" fill="#403279"/>
<path d="M374.357 270.429C368.305 276.076 360.978 278.065 357.947 274.86C354.916 271.655 357.416 264.464 363.468 258.807C369.521 253.151 376.847 251.172 379.878 254.377C382.91 257.581 380.4 264.773 374.357 270.429Z" stroke="#403279" stroke-width="0.9473" stroke-miterlimit="10"/>
</g>
<path d="M285.28 184.76C284.32 184.148 283.174 183.895 282.046 184.045L265.636 191.546C265.636 191.546 260.085 194.683 261.842 204.288L328.293 253.218C327.82 250.96 327.907 247.658 330.446 243.739C332.801 240.081 343.381 234.183 349.095 231.19C322.048 211.508 285.28 184.76 285.28 184.76Z" fill="#403279" stroke="#403279" stroke-width="1.27267" stroke-linecap="round" stroke-linejoin="round"/>
<path d="M361.528 258.634L326.43 233.198C325.905 232.818 325.484 232.312 325.206 231.726C324.928 231.14 324.801 230.494 324.839 229.847C324.876 229.2 325.076 228.572 325.42 228.023C325.764 227.473 326.241 227.019 326.806 226.702L332.241 223.738C332.879 223.393 333.601 223.234 334.325 223.28C335.049 223.326 335.745 223.575 336.334 223.999L373.44 250.873" fill="white"/>
<path d="M361.528 258.634L326.43 233.198C325.905 232.818 325.484 232.312 325.206 231.726C324.928 231.14 324.801 230.494 324.839 229.847C324.876 229.2 325.076 228.572 325.42 228.023C325.764 227.473 326.241 227.019 326.806 226.702L332.241 223.738C332.879 223.393 333.601 223.234 334.325 223.28C335.049 223.326 335.745 223.575 336.334 223.999L373.44 250.873" stroke="#403279" stroke-width="0.9473" stroke-miterlimit="10"/>
<g style="mix-blend-mode:multiply" opacity="0.5">
<path d="M361.528 258.634L326.43 233.198C325.905 232.818 325.484 232.312 325.206 231.726C324.928 231.14 324.801 230.494 324.839 229.847C324.876 229.2 325.076 228.572 325.42 228.023C325.764 227.473 326.241 227.019 326.806 226.702L332.241 223.738C332.879 223.393 333.601 223.234 334.325 223.28C335.049 223.326 335.745 223.575 336.334 223.999L373.44 250.873" fill="#403279"/>
<path d="M361.528 258.634L326.43 233.198C325.905 232.818 325.484 232.312 325.206 231.726C324.928 231.14 324.801 230.494 324.839 229.847C324.876 229.2 325.076 228.572 325.42 228.023C325.764 227.473 326.241 227.019 326.806 226.702L332.241 223.738C332.879 223.393 333.601 223.234 334.325 223.28C335.049 223.326 335.745 223.575 336.334 223.999L373.44 250.873" stroke="#403279" stroke-width="0.9473" stroke-miterlimit="10"/>
</g>
</svg>
