<svg width="45" height="45" viewBox="0 0 45 45" fill="none" xmlns="http://www.w3.org/2000/svg">
<circle opacity="0.2" cx="22.5" cy="22.5" r="22.5" fill="#403279"/>
<path d="M25.0937 25.5939V25.594L25.0979 25.5939L26.9313 25.5626L26.9313 25.563L26.9448 25.562C27.1979 25.544 27.4182 25.3629 27.4735 25.1046L27.4737 25.1047L27.475 25.0973L27.8396 23.1077L27.8396 23.1077L27.8403 23.1038C27.8969 22.7642 27.6338 22.4481 27.2812 22.4481L27.2776 22.4481L25.0609 22.4793C24.9073 22.4786 24.7877 22.3594 24.7811 22.2119L24.7395 19.6656C24.7402 19.6321 24.7688 19.6043 24.802 19.6043V19.6044L24.8062 19.6043L27.3043 19.5627C27.6183 19.5614 27.8645 19.3146 27.8645 19.0002H27.8645L27.8645 18.996L27.8228 16.4978C27.8216 16.1837 27.5747 15.9377 27.2603 15.9376L27.2566 15.9377L24.4441 15.9794L24.4433 15.9794C22.577 16.0131 21.0912 17.5428 21.125 19.4109V19.411L21.177 22.2755L21.177 22.2755L21.1772 22.2799C21.1823 22.4228 21.0727 22.5455 20.9097 22.5523L19.6642 22.5731C19.3502 22.5743 19.1041 22.8212 19.1041 23.1356H19.1041L19.1041 23.1395L19.1353 25.117C19.1365 25.4311 19.3834 25.6772 19.6978 25.6772V25.6773L19.702 25.6772L20.9496 25.6564C21.103 25.6573 21.2225 25.7764 21.2292 25.9238L21.3229 31.8583L21.3229 31.8588C21.3308 32.303 20.974 32.6668 20.5312 32.6668H18.1353C16.2892 32.6668 14.8459 32.1175 13.8643 31.1347C12.8827 30.1518 12.3333 28.7058 12.3333 26.8543V18.1356C12.3333 16.2895 12.8826 14.8461 13.8642 13.8644C14.8458 12.8828 16.2892 12.3335 18.1353 12.3335H26.8645C28.7106 12.3335 30.154 12.8828 31.1356 13.8644C32.1173 14.8461 32.6666 16.2895 32.6666 18.1356V26.8647C32.6666 28.7109 32.1173 30.1543 31.1356 31.1359C30.154 32.1175 28.7106 32.6668 26.8645 32.6668H25.6249C25.1901 32.6668 24.8333 32.31 24.8333 31.8752V25.8648C24.8333 25.715 24.957 25.5939 25.0937 25.5939Z" fill="#403279" stroke="#403279" stroke-width="0.5"/>
</svg>
