<svg width="45" height="46" viewBox="0 0 45 46" fill="none" xmlns="http://www.w3.org/2000/svg">
<circle opacity="0.2" cx="22.5" cy="23.2812" r="22.5" fill="#403279"/>
<path d="M32.6563 18.9159V18.9166V27.6458C32.6563 29.4919 32.107 30.9353 31.1253 31.9169C30.1437 32.8985 28.7003 33.4478 26.8542 33.4478H18.1355C16.2893 33.4478 14.846 32.8985 13.8644 31.9157C12.8828 30.9328 12.3334 29.4868 12.3334 27.6353V18.9166C12.3334 17.0705 12.8827 15.6271 13.8643 14.6454C14.8459 13.6638 16.2893 13.1145 18.1355 13.1145H26.8646C28.7108 13.1145 30.1541 13.6638 31.1343 14.6453C32.1146 15.6268 32.6614 17.0699 32.6563 18.9159ZM28.625 18.4686L28.6338 18.4588C28.7458 18.3344 28.8342 18.196 28.8975 18.044C28.9602 17.8934 29 17.7253 29 17.552C29 17.3799 28.9608 17.213 28.8988 17.0632C28.8328 16.8929 28.7407 16.764 28.6338 16.6452L28.6201 16.63L28.6041 16.6172C28.5903 16.6061 28.579 16.5963 28.5645 16.5838C28.5554 16.5758 28.5449 16.5667 28.5317 16.5555C28.5051 16.5329 28.4682 16.5025 28.4259 16.4764C28.3539 16.4289 28.2787 16.3902 28.2002 16.3623C28.1232 16.3255 28.0425 16.2991 27.9509 16.285C27.5332 16.197 27.087 16.3406 26.792 16.6356L26.7918 16.6354L26.783 16.6452C26.6761 16.7639 26.584 16.8929 26.518 17.0632C26.456 17.2129 26.4167 17.3799 26.4167 17.552C26.4167 17.7253 26.4565 17.8934 26.5193 18.044C26.5826 18.196 26.671 18.3344 26.783 18.4588L26.7827 18.4591L26.792 18.4684C27.0385 18.7149 27.3633 18.8437 27.7084 18.8437C27.8817 18.8437 28.0498 18.8038 28.2004 18.7411C28.3523 18.6778 28.4908 18.5894 28.6152 18.4774L28.625 18.4686ZM18.2084 23.2812C18.2084 25.6484 20.1328 27.5728 22.5 27.5728C24.8673 27.5728 26.7917 25.6484 26.7917 23.2812C26.7917 20.9139 24.8673 18.9895 22.5 18.9895C20.1328 18.9895 18.2084 20.9139 18.2084 23.2812Z" fill="#403279" stroke="#403279" stroke-width="0.5"/>
</svg>
