<svg width="221" height="136" viewBox="0 0 221 136" fill="none" xmlns="http://www.w3.org/2000/svg">
<path d="M71.8111 5.93558L62.5746 0L55.04 12.724L63.789 18.2928L71.8111 5.93558Z" fill="#403279"/>
<path d="M95.1453 29.3214C92.1434 27.7096 88.5002 26.8994 84.2069 26.8994C82.5905 26.8994 81.0939 27.0188 79.717 27.2661C75.7402 27.991 71.6094 30.703 67.3161 35.3849C64.5623 38.293 61.4835 42.4547 58.0883 47.8616C56.3436 50.5479 55.0693 52.4156 54.2825 53.4816C52.4437 53.2343 50.8274 52.2962 49.459 50.6502C48.3216 49.1152 47.1499 47.5801 45.9354 46.0451C45.046 47.094 43.1816 52.0659 40.3423 60.9522C40.3423 62.564 41.4541 64.7643 43.6862 67.553C45.9098 70.3417 47.0301 72.2179 47.0301 73.1901C47.0301 74.8786 44.6783 77.1471 39.9831 79.9699C34.7149 83.2021 29.5322 84.8139 24.4265 84.8139C23.1436 84.8139 21.9292 84.7372 20.7832 84.5837C20.4838 84.5495 20.1845 84.5069 19.8938 84.4472C18.6195 85.1209 14.4374 87.2018 11.0592 87.1762C10.8112 87.1847 8.33107 87.0483 6.36404 86.9545C6.32128 86.963 3.52469 86.9289 0.0866699 87.3382C0.103774 87.5344 0.129428 87.7305 0.163637 87.9182C0.762297 91.8837 3.10563 94.9709 7.17652 97.1797C10.8198 99.1923 15.2328 100.207 20.4154 100.207C25.1192 100.207 29.9341 99.0303 34.8773 96.6936C41.36 93.7002 46.4571 89.2997 50.1859 83.4835C52.9398 79.1256 54.4022 75.1686 54.5647 71.6124C54.6075 70.3502 54.6759 69.4036 54.77 68.7469C55.1634 67.9197 55.4627 67.4933 55.6508 67.4933C62.7065 66.4443 68.3681 65.6342 72.6699 65.0713C82.2228 63.2122 89.3896 59.6559 94.1703 54.4026C98.3866 49.7974 100.49 44.1092 100.49 37.3208C100.49 33.9266 98.7116 31.2658 95.1453 29.3214ZM62.7065 52.9528C66.6662 45.2008 72.1396 41.3205 79.1098 41.3205C84.4549 41.3205 88.7054 42.8129 91.8612 45.8063C88.5429 47.4181 78.819 49.7974 62.7065 52.9528Z" fill="#403279"/>
<path d="M19.8926 84.4474C18.6183 85.1211 14.4362 87.2019 11.0581 87.1763C10.8101 87.1849 8.32992 87.0484 6.3629 86.9546C6.32014 86.9632 3.52355 86.929 0.085528 87.3384C0.0256621 86.8352 0 86.315 0 85.7863C0 82.3409 1.67626 77.062 5.01165 69.9495C5.1827 69.5828 5.36229 69.2161 5.54189 68.8409C5.7899 68.3207 6.05503 67.7919 6.32015 67.2461C9.88645 60.0654 13.008 56.1852 15.6763 55.6138C15.6763 57.8823 14.5645 61.0888 12.3409 65.2505C12.3409 65.2505 12.341 65.2591 12.3324 65.2591C12.2127 65.4808 12.1015 65.7025 11.9818 65.9157C9.98907 69.7449 8.99699 72.6103 8.99699 74.5206C8.99699 77.5907 10.4338 80.0724 13.3073 81.9742C15.1546 83.1937 17.3526 84.0209 19.8926 84.4474Z" fill="#403279"/>
<path d="M186.396 6.53979L177.16 1.3291L169.506 13.3282L178.374 18.897L186.396 6.53979Z" fill="#403279"/>
<path d="M213.611 44.3454C208.753 45.9658 205.794 46.7674 204.742 46.7674C203.604 46.7674 201.501 45.3091 198.422 42.4095C195.018 39.1774 193.316 36.4313 193.316 34.1714C193.316 32.3122 194.248 31.3827 196.113 31.3827C197.729 31.3827 199.713 32.5169 202.065 34.7769C203.767 36.3972 205.144 38.009 206.196 39.6208C207.085 38.6486 208.385 36.5933 210.087 33.4379C211.789 30.2911 212.636 28.2699 212.636 27.383C212.636 25.6859 211.139 23.75 208.137 21.5668C205.298 19.6309 203.117 18.6587 201.578 18.6587C197.772 18.6587 193.838 21.8909 189.793 28.3552C186.312 33.9326 184.567 38.0943 184.567 40.8318C184.567 42.5289 184.849 44.1066 185.414 45.5564C186.226 47.3302 186.996 49.07 187.723 50.7671C181.651 52.3874 177.033 53.3511 173.868 53.6752C173.056 53.9992 170.225 54.1613 165.359 54.1613H157.337H154.061C149.52 54.1613 145.312 54.8862 141.421 56.3445C137.29 57.8795 134.699 59.8581 133.647 62.2801C131.705 66.3991 130.286 69.3072 129.396 71.0043C128.344 73.2643 126.241 74.9187 123.076 75.9762C109.632 80.5814 102.012 83.2081 100.233 83.8562C95.1273 85.8774 91.8518 87.7706 90.3894 89.553C90.2269 89.7918 90.1499 90.0391 90.1499 90.2779C90.1499 90.8407 90.3894 91.4121 90.8769 91.975C94.5201 93.8341 99.6258 94.721 106.185 94.6443C114.045 94.559 119.878 93.186 123.683 90.5252C126.189 88.7514 128.182 85.8774 129.636 81.9203C131.252 77.4772 132.595 74.6885 133.647 73.5628C134.699 72.4285 137.29 71.2175 141.421 69.9298C145.954 68.4715 150.17 67.7466 154.061 67.7466H157.337H165.359H165.598C166.248 67.7466 167.668 67.6272 169.849 67.3799C174.304 66.8938 180.137 65.7681 187.347 63.9857C190.34 63.2608 193.504 62.408 196.823 61.4443C204.272 59.8325 209.617 58.1695 212.858 56.4724C215.851 54.9373 217.878 52.9588 218.93 50.5368C219.332 49.6499 220.025 46.7845 221 41.9319C220.94 41.9234 218.477 42.7251 213.611 44.3454Z" fill="#403279"/>
<path d="M77.348 123.668C76.3132 123.003 75.1929 122.662 73.2943 122.662C69.9076 122.662 67.6498 125.126 67.6498 128.401C67.6498 131.855 70.1385 134.149 73.1917 134.149C74.6541 134.149 75.0218 134.004 75.5521 133.893V129.442H72.4561V127.719H77.6645L77.673 135.352C76.8777 135.633 75.4665 136 73.1831 136C68.5221 136 65.4262 133.023 65.4176 128.35C65.4176 123.83 68.6931 120.811 73.1831 120.811C75.3383 120.811 76.279 121.127 77.5105 121.553L77.348 123.668Z" fill="#403279"/>
<path d="M87.2026 119.955H89.1782V126.538H89.221C89.9394 125.396 91.188 124.747 92.6847 124.747C95.4727 124.747 96.7128 126.47 96.7128 129.344V135.732H94.7372V130.171C94.7372 127.681 94.1899 126.462 92.4623 126.359C90.2045 126.359 89.1782 128.167 89.1868 130.768V135.74H87.2112L87.2026 119.955Z" fill="#403279"/>
<path d="M106.579 125.747C107.58 125.167 108.76 124.741 110.129 124.741C113.207 124.741 114.456 126.25 114.465 129.175V133.61C114.465 134.829 114.507 135.401 114.542 135.716H112.686V134.326H112.643C112.181 134.974 111.112 135.972 109.308 135.972C106.981 135.972 105.365 134.966 105.356 132.638C105.356 129.934 108.307 129.099 110.36 129.099C111.129 129.099 111.685 129.099 112.455 129.133C112.455 127.282 111.788 126.335 109.795 126.335C108.683 126.335 107.469 126.762 106.674 127.427L106.579 125.747ZM112.472 130.608C112.044 130.608 111.625 130.565 111.206 130.565C110.129 130.565 107.477 130.745 107.477 132.638C107.477 133.781 108.581 134.369 109.487 134.369C111.437 134.369 112.472 133.149 112.472 131.546V130.608Z" fill="#403279"/>
<path d="M123.797 124.986H125.653V126.641H125.696C126.209 125.532 127.372 124.73 128.509 124.73C129.091 124.73 129.382 124.799 129.809 124.875V126.641C129.45 126.496 129.048 126.453 128.706 126.453C126.936 126.453 125.773 128.133 125.773 130.837V135.715H123.797V124.986Z" fill="#403279"/>
<path d="M138.499 125.728C139.499 125.149 140.68 124.722 142.048 124.722C145.127 124.722 146.376 126.232 146.384 129.157V133.591C146.384 134.811 146.427 135.382 146.461 135.698H144.605V134.308H144.562C144.101 134.956 143.032 135.954 141.227 135.954C138.901 135.954 137.284 134.947 137.276 132.619C137.276 129.916 140.226 129.08 142.279 129.08C143.049 129.08 143.605 129.08 144.374 129.114C144.374 127.264 143.707 126.317 141.715 126.317C140.603 126.317 139.388 126.743 138.593 127.409L138.499 125.728ZM144.383 130.589C143.955 130.589 143.536 130.547 143.117 130.547C142.039 130.547 139.388 130.726 139.388 132.619C139.388 133.762 140.492 134.35 141.398 134.35C143.348 134.35 144.383 133.131 144.383 131.528V130.589Z" fill="#403279"/>
<path d="M163.324 134.182H163.281C162.76 134.975 161.528 135.947 159.612 135.947C156.354 135.947 154.986 133.064 154.986 130.131C154.986 127.257 156.508 124.715 159.629 124.707C161.502 124.707 162.563 125.449 163.196 126.43H163.239V119.914H165.214L165.223 135.691H163.324V134.182ZM160.083 134.344C162.315 134.344 163.247 132.143 163.239 130.352C163.239 128.34 162.212 126.31 160.049 126.31C157.893 126.31 157.064 128.323 157.098 130.284C157.064 131.973 157.945 134.344 160.083 134.344Z" fill="#403279"/>
</svg>
