<svg width="45" height="46" viewBox="0 0 45 46" fill="none" xmlns="http://www.w3.org/2000/svg">
<circle opacity="0.2" cx="22.5" cy="23.2812" r="22.5" fill="#403279"/>
<path d="M12.4553 21.6531L12.4553 21.6535C12.0687 24.1157 12.5773 26.4436 13.6853 28.3648L13.7371 28.4546L13.7102 28.5546L12.7832 32.002C12.7832 32.0022 12.7831 32.0023 12.7831 32.0024C12.6246 32.5979 13.1723 33.1332 13.7546 32.968L13.7564 32.9675L17.1522 32.03L17.2542 32.0018L17.3454 32.0554C18.8496 32.9397 20.6081 33.448 22.4896 33.448C28.2207 33.448 32.9815 28.3921 32.6462 22.6814C32.3005 16.7846 26.943 12.2403 20.7699 13.2572L12.4553 21.6531ZM12.4553 21.6531C13.1159 17.4055 16.5224 13.9584 20.7698 13.2572L12.4553 21.6531ZM27.8072 27.2683L27.8069 27.2682C27.7047 27.4727 27.5785 27.6679 27.4173 27.8523L27.4126 27.8576L27.4126 27.8575C27.1339 28.1584 26.8242 28.3911 26.4711 28.533C26.1234 28.6831 25.7461 28.7501 25.3541 28.7501C24.7838 28.7501 24.177 28.616 23.5565 28.344C22.9338 28.0755 22.3246 27.7223 21.7186 27.2864L21.718 27.2859C21.1017 26.8397 20.5298 26.3416 19.9812 25.8036L19.9795 25.8019C19.4275 25.25 18.9403 24.6672 18.4966 24.0651L18.4949 24.0628L18.4949 24.0628C18.059 23.4568 17.7052 22.8467 17.4467 22.2326C17.186 21.6135 17.0521 21.0076 17.0521 20.4272C17.0521 20.0444 17.1195 19.6693 17.2569 19.3252C17.3959 18.9669 17.6149 18.6454 17.9204 18.3616C18.2927 17.9907 18.7174 17.8022 19.1771 17.8022C19.3586 17.8022 19.5402 17.8411 19.7089 17.919C19.8775 17.9968 20.04 18.1168 20.1631 18.2943C20.1634 18.2946 20.1636 18.295 20.1639 18.2953L21.3707 20.0016L21.3722 20.0036L21.3722 20.0036C21.4638 20.136 21.5523 20.2712 21.6065 20.4158C21.6702 20.5589 21.6979 20.6955 21.6979 20.8335C21.6979 21.0151 21.6373 21.1836 21.5493 21.3344C21.466 21.4772 21.3597 21.6185 21.2207 21.7579L20.827 22.1723L20.8226 22.177L20.8226 22.1769C20.8199 22.1796 20.8179 22.1817 20.8165 22.1834C20.8152 22.1849 20.8144 22.186 20.814 22.1866C20.8135 22.1891 20.8125 22.1956 20.8125 22.2085C20.8125 22.213 20.8135 22.2213 20.82 22.249C20.836 22.2839 20.8468 22.3133 20.8552 22.3377C20.937 22.4863 21.0843 22.6814 21.3036 22.9407C21.543 23.2112 21.7877 23.4864 22.0518 23.7504C22.3284 24.027 22.5942 24.2723 22.87 24.5073C23.1242 24.7224 23.3335 24.8651 23.4888 24.949C23.5138 24.959 23.5346 24.9697 23.544 24.9744C23.5552 24.98 23.5596 24.982 23.5604 24.9824L27.8072 27.2683ZM27.8072 27.2683L27.8118 27.2579C27.86 27.1494 27.8949 27.0408 27.9242 26.9434C27.9323 26.9166 27.9398 26.8912 27.947 26.8668C27.9674 26.7979 27.9854 26.7371 28.0066 26.6771L28.0208 26.6367V26.5939C28.0208 26.4083 27.9801 26.2521 27.9208 26.0979L27.9165 26.0866L27.9111 26.0758C27.8306 25.9149 27.7099 25.768 27.5395 25.6497L27.8072 27.2683Z" fill="#403279" stroke="#403279" stroke-width="0.5"/>
</svg>
