<svg width="41" height="41" viewBox="0 0 41 41" fill="none" xmlns="http://www.w3.org/2000/svg">
<path d="M11.4551 37.2795H29.2129C33.8896 37.2795 35.7535 34.4159 35.9738 30.9253L36.8549 16.9292C37.0921 13.2692 34.1776 10.1684 30.5007 10.1684C29.4671 10.1684 28.5182 9.57535 28.0438 8.66035L26.8238 6.2034C26.0443 4.66146 24.011 3.39062 22.2826 3.39062H18.4024C16.6571 3.39062 14.6238 4.66146 13.8443 6.2034L12.6243 8.66035C12.1499 9.57535 11.201 10.1684 10.1674 10.1684C6.49043 10.1684 3.57598 13.2692 3.8132 16.9292L4.69432 30.9253C4.89765 34.4159 6.77848 37.2795 11.4551 37.2795Z" fill="#403279" stroke="#403279" stroke-width="1.08929" stroke-linecap="round" stroke-linejoin="round"/>
<path d="M17.7924 13.5547H22.8757H17.7924Z" fill="#403279"/>
<path d="M17.7924 13.5547H22.8757" stroke="white" stroke-width="3.26786" stroke-linecap="round" stroke-linejoin="round"/>
<path d="M20.3336 30.4983C23.3667 30.4983 25.8405 28.0244 25.8405 24.9913C25.8405 21.9583 23.3667 19.4844 20.3336 19.4844C17.3005 19.4844 14.8267 21.9583 14.8267 24.9913C14.8267 28.0244 17.3005 30.4983 20.3336 30.4983Z" fill="#979797" stroke="white" stroke-width="3.26786" stroke-linecap="round" stroke-linejoin="round"/>
</svg>
