<svg width="337" height="264" viewBox="0 0 337 264" fill="none" xmlns="http://www.w3.org/2000/svg">
<path d="M269.487 188.625V61.9848C269.487 59.9562 268.681 58.0107 267.247 56.5762C265.812 55.1418 263.867 54.3359 261.838 54.3359H81.6065C79.5771 54.3359 77.6307 55.1415 76.195 56.5758C74.7593 58.01 73.9516 59.9555 73.9495 61.9848V188.625H269.487Z" fill="#403279"/>
<path d="M257.393 65.8359H86.4487V176.489H257.393V65.8359Z" fill="white"/>
<path d="M73.9494 188.625L45.333 247.261H298.979L269.487 188.625H73.9494Z" fill="white" stroke="#403279" stroke-width="1.05102" stroke-miterlimit="10"/>
<path d="M299.636 247.684H44.6436V251.269H299.636V247.684Z" fill="#403279"/>
<path d="M98.8429 192.105L96.3041 198.165H109.201L111.529 192.105H98.8429ZM83.1152 199.016L79.9437 206.187H92.0457L95.0387 199.016H83.1152ZM79.5625 207.038L76.391 214.2H88.6957L91.6888 207.038H79.5625ZM121.262 207.038L119.129 214.2H129.56L131.126 207.038H121.262ZM143.974 199.016L143.025 206.187H152.912L153.561 199.016H143.974ZM132.042 207.038L130.42 214.2H141.078L142.027 207.038H132.042ZM142.919 207.038L141.978 214.2H152.174L152.831 207.038H142.919ZM154.429 199.016L153.772 206.187H163.449L163.806 199.016H154.429ZM155.054 192.105L154.502 198.165H163.846L164.154 192.105H155.054ZM174.245 199.016H164.657L164.301 206.187H174.318L174.245 199.016ZM153.683 207.038L153.034 214.2H163.051L163.4 207.038H153.683ZM174.334 207.038H164.26L163.895 214.2H174.391L174.334 207.038ZM184.627 207.038H175.178L175.243 214.2H185.017L184.627 207.038ZM193.906 192.105H184.716L185.041 198.165H194.531L193.906 192.105ZM194.628 199.016H185.057L185.438 206.187H195.391L194.628 199.016ZM203.867 192.105H194.75L195.391 198.165H204.784L203.867 192.105ZM204.922 199.016H195.48L196.234 206.187H206.008L204.922 199.016ZM195.472 207.038H185.528L185.909 214.2H196.267L195.472 207.038ZM206.146 207.038H196.332L197.086 214.2H207.249L206.146 207.038ZM256.339 199.016H246.897L249.404 206.187H259.137L256.339 199.016ZM230.707 215.052H219.538L220.917 222.45H232.573L230.707 215.052ZM248.795 207.038H240.879L243.134 214.2H251.31L248.795 207.038ZM259.429 207.038H249.695L252.194 214.2H262.211L259.429 207.038ZM89.2554 215.052L86.165 222.45H99.8568L102.704 215.052H89.2554ZM276.13 223.301H266.64L270.095 232.175H269.179L265.731 223.301H72.3516L68.4258 232.175H279.918L276.13 223.301ZM76.026 215.052L72.7815 222.45H85.3053L88.3875 215.052H76.026ZM262.584 215.052H252.502L255.081 222.45H265.423L262.584 215.052ZM272.642 215.052H263.46L266.348 222.45H275.773L272.642 215.052ZM269.235 207.038H260.354L263.136 214.2H272.253L269.235 207.038ZM251.634 215.052H243.442L245.77 222.45H254.222L251.634 215.052ZM242.541 215.052H231.575L233.481 222.45H244.837L242.541 215.052ZM218.711 215.052H208.239L209.375 222.45H220.049L218.711 215.052ZM207.404 215.052H197.175L197.946 222.45H208.49L207.404 215.052ZM196.348 215.052H185.917L186.314 222.45H197.094L196.348 215.052ZM185.09 215.052H175.251L175.332 222.45H185.455L185.09 215.052ZM174.431 215.052H163.887L163.522 222.45H174.513L174.431 215.052ZM152.977 215.052L152.304 222.45H162.662L163.035 215.052H152.977ZM141.889 215.052L140.916 222.45H151.46L152.142 215.052H141.889ZM130.306 215.052L128.684 222.45H140.04L141.005 215.052H130.306ZM118.951 215.052L116.752 222.45H127.849L129.471 215.052H118.951ZM103.693 215.052L100.846 222.45H115.771L117.977 215.052H103.693ZM240.051 207.038H229.588L231.421 214.2H242.306L240.051 207.038ZM265.845 199.016H257.239L260.029 206.187H268.83L265.845 199.016ZM263.006 192.365L262.901 192.105H254.554L256.906 198.165H265.415L263.006 192.365ZM253.662 192.105H244.488L246.597 198.165H255.998L253.662 192.105ZM243.596 192.105H236.198L238.105 198.165H245.713L243.596 192.105ZM246.029 199.016H238.388L240.651 206.187H248.536L246.029 199.016ZM237.496 199.016H227.471L229.312 206.187H239.719L237.496 199.016ZM235.322 192.105H225.702L227.26 198.165H237.188L235.322 192.105ZM228.687 207.038H218.062L219.384 214.2H230.488L228.687 207.038ZM217.226 207.038H206.998L208.101 214.2H218.516L217.226 207.038ZM226.635 199.016H216.569L217.899 206.187H228.444L226.635 199.016ZM224.859 192.105H215.288L216.415 198.165H226.376L224.859 192.105ZM215.734 199.016H205.806L206.909 206.187H217.064L215.734 199.016ZM214.46 192.105H204.727L205.652 198.165H215.539L214.46 192.105ZM184.222 199.016H175.088L175.17 206.187H184.579L184.222 199.016ZM183.857 192.105H175.024L175.08 198.165H184.149L183.857 192.105ZM174.204 192.105H164.998L164.698 198.165H174.229L174.204 192.105ZM144.915 192.105L144.104 198.165H153.667L154.218 192.105H144.915ZM135.335 192.105L134.005 198.165H143.26L144.071 192.105H135.335ZM133.819 199.016L132.253 206.187H142.197L143.138 199.016H133.819ZM125.707 192.105L123.882 198.165H133.089L134.411 192.105H125.707ZM123.647 199.016L121.53 206.187H131.345L132.918 199.016H123.647ZM112.454 192.105L110.093 198.165H122.982L124.774 192.105H112.454ZM109.801 199.016L107.043 206.187H120.638L122.771 199.016H109.801ZM106.711 207.038L103.961 214.2H118.253L120.386 207.038H106.711ZM92.6216 207.038L89.6285 214.2H103.036L105.794 207.038H92.6216ZM95.9715 199.016L92.9785 206.187H106.119L108.876 199.016H95.9715ZM86.1813 192.105L83.4965 198.165H95.4037L97.9344 192.105H86.1813ZM245.972 199.016H238.332L240.595 206.187H248.479L245.972 199.016Z" fill="#403279"/>
<path d="M100.449 223.301L100.287 223.731L99.4917 223.422L99.5323 223.301H100.449Z" fill="#403279"/>
<path d="M85.8161 223.301L85.735 223.504L85.2402 223.301H85.8161Z" fill="#403279"/>
<path d="M219.741 89.2148H125.326C120.425 89.2148 116.452 93.1877 116.452 98.0885V132.229C116.452 137.129 120.425 141.102 125.326 141.102H219.741C224.641 141.102 228.614 137.129 228.614 132.229V98.0885C228.614 93.1877 224.641 89.2148 219.741 89.2148Z" fill="#403279" stroke="#403279" stroke-width="1.57762" stroke-miterlimit="10"/>
<path d="M129.56 164.64H215.685C216.935 164.638 218.163 164.31 219.246 163.687C220.33 163.064 221.232 162.169 221.864 161.091C222.495 160.012 222.833 158.787 222.845 157.537C222.857 156.287 222.541 155.056 221.931 153.965L178.86 77.1358C178.236 76.0268 177.329 75.1038 176.23 74.4614C175.132 73.819 173.883 73.4805 172.61 73.4805C171.338 73.4805 170.089 73.819 168.99 74.4614C167.892 75.1038 166.984 76.0268 166.361 77.1358L123.29 153.965C122.678 155.058 122.363 156.291 122.376 157.543C122.389 158.795 122.729 160.022 123.363 161.101C123.997 162.181 124.903 163.075 125.99 163.696C127.077 164.317 128.308 164.642 129.56 164.64Z" fill="#403279"/>
<path d="M133.827 160.073H211.394C214.363 160.073 216.261 156.707 214.785 153.973L176.005 81.1829C175.69 80.5527 175.205 80.0228 174.605 79.6524C174.006 79.2821 173.315 79.0859 172.61 79.0859C171.906 79.0859 171.215 79.2821 170.615 79.6524C170.016 80.0228 169.531 80.5527 169.216 81.1829L130.436 153.973C128.976 156.707 130.858 160.073 133.827 160.073Z" stroke="white" stroke-width="0.788267" stroke-miterlimit="10"/>
<path d="M171.276 136.31H173.45C175.121 136.31 176.524 134.736 176.694 132.66L178.836 109.137C179.055 106.704 177.53 104.562 175.591 104.562H168.786C166.799 104.562 165.266 106.744 165.541 109.21L168.032 132.733C168.234 134.777 169.629 136.31 171.276 136.31Z" fill="white"/>
<path d="M176.605 144.639C176.605 145.512 176.346 146.365 175.861 147.091C175.377 147.816 174.687 148.382 173.881 148.716C173.075 149.05 172.188 149.137 171.332 148.967C170.476 148.797 169.69 148.376 169.072 147.759C168.455 147.142 168.035 146.356 167.865 145.5C167.695 144.644 167.782 143.757 168.116 142.95C168.45 142.144 169.015 141.455 169.741 140.97C170.467 140.485 171.32 140.227 172.193 140.227C173.363 140.227 174.485 140.691 175.313 141.519C176.14 142.346 176.605 143.469 176.605 144.639Z" fill="white"/>
</svg>
