<svg width="62" height="62" viewBox="0 0 62 62" fill="none" xmlns="http://www.w3.org/2000/svg">
<path d="M45.6281 16.3943C44.7928 16.1918 43.907 16.0906 42.9958 16.0906C36.3643 16.0906 30.9731 21.4818 30.9731 28.1132C30.9731 30.3659 31.6059 32.492 32.7196 34.3144C33.6561 35.8836 34.9469 37.2251 36.5162 38.1869C38.3892 39.4271 40.6166 40.1358 42.9958 40.1358C47.3999 40.1358 51.2218 37.7819 53.2973 34.3144C54.411 32.492 55.0184 30.3659 55.0184 28.1132C55.0184 22.393 51.0193 17.5839 45.6281 16.3943ZM47.9314 27.0248L41.7809 33.1754C41.5531 33.4032 41.0722 33.631 40.7431 33.6816L38.3892 34.0106C37.5286 34.1372 36.9465 33.5297 37.073 32.6945L37.4021 30.3406C37.4527 30.0115 37.6805 29.5559 37.9083 29.3028L43.173 24.0382L44.0588 23.1523C45.1219 22.0892 46.3621 21.583 47.9061 23.1523C49.45 24.7216 48.9944 25.9618 47.9314 27.0248Z" fill="#979797"/>
<path d="M52.3608 10.4463V12.8761C52.3608 13.9139 51.1712 14.5466 50.2347 14.0657C49.0704 13.4583 47.8302 13.0027 46.514 12.6989C45.4004 12.4205 44.2107 12.294 42.9958 12.294C34.2636 12.294 27.1766 19.381 27.1766 28.1132C27.1766 30.9987 27.9612 33.8335 29.4545 36.2633C30.7201 38.3894 32.4918 40.1612 34.4155 41.3508C34.8458 41.6292 35.3013 41.8823 35.7316 42.1354C36.1619 42.3632 36.4656 42.8188 36.4656 43.2997V48.539C36.4656 50.083 35.4532 52.1332 34.1877 52.8925L30.6442 55.1958C27.3538 57.246 22.8231 54.9427 22.8231 50.8423V37.301C22.8231 35.504 21.8107 33.2007 20.7983 31.9352L11.2055 21.7096C9.93992 20.4187 8.92749 18.1155 8.92749 16.5968V10.6994C8.92749 7.63678 11.2055 5.3335 13.9643 5.3335H47.324C50.0829 5.3335 52.3608 7.63678 52.3608 10.4463Z" fill="#403279"/>
</svg>
