<svg width="32" height="32" viewBox="0 0 32 32" fill="none" xmlns="http://www.w3.org/2000/svg">
<path d="M21.33 10.7217L21.33 10.7217L21.3288 10.7204C20.4969 9.83397 19.5419 9.26818 18.6932 9.26818C18.26 9.26818 17.9165 8.91556 17.9165 8.49151C17.9165 8.06958 18.2712 7.71484 18.6932 7.71484C19.9359 7.71484 21.2746 8.38802 22.4716 9.65008C23.5954 10.8393 24.2832 12.2873 24.2832 13.2915C24.2832 13.7268 23.9284 14.0815 23.4932 14.0815C23.06 14.0815 22.7165 13.7289 22.7165 13.3048C22.7165 12.9956 22.5693 12.571 22.3377 12.1316C22.1008 11.6823 21.7581 11.1844 21.33 10.7217Z" fill="#403279" stroke="#403279" stroke-width="0.5"/>
<path d="M28.3068 14.3346C27.7335 14.3346 27.2802 13.868 27.2802 13.308C27.2802 8.57463 23.4268 4.73464 18.7068 4.73464C18.1335 4.73464 17.6802 4.26797 17.6802 3.70797C17.6802 3.14797 18.1335 2.66797 18.6935 2.66797C24.5602 2.66797 29.3335 7.4413 29.3335 13.308C29.3335 13.868 28.8668 14.3346 28.3068 14.3346Z" fill="#403279"/>
<path d="M14.7332 19.9346L12.2665 22.4013C11.7465 22.9213 10.9198 22.9213 10.3865 22.4146C10.2398 22.268 10.0932 22.1346 9.9465 21.988C8.57317 20.6013 7.33317 19.148 6.2265 17.628C5.13317 16.108 4.25317 14.588 3.61317 13.0813C2.9865 11.5613 2.6665 10.108 2.6665 8.7213C2.6665 7.81464 2.8265 6.94797 3.1465 6.14797C3.4665 5.33464 3.97317 4.58797 4.67984 3.9213C5.53317 3.0813 6.4665 2.66797 7.45317 2.66797C7.8265 2.66797 8.19984 2.74797 8.53317 2.90797C8.87984 3.06797 9.1865 3.30797 9.4265 3.65464L12.5198 8.01464C12.7598 8.34797 12.9332 8.65464 13.0532 8.94797C13.1732 9.22797 13.2398 9.50797 13.2398 9.7613C13.2398 10.0813 13.1465 10.4013 12.9598 10.708C12.7865 11.0146 12.5332 11.3346 12.2132 11.6546L11.1998 12.708C11.0532 12.8546 10.9865 13.028 10.9865 13.2413C10.9865 13.348 10.9998 13.4413 11.0265 13.548C11.0665 13.6546 11.1065 13.7346 11.1332 13.8146C11.3732 14.2546 11.7865 14.828 12.3732 15.5213C12.9732 16.2146 13.6132 16.9213 14.3065 17.628C14.4398 17.7613 14.5865 17.8946 14.7198 18.028C15.2532 18.548 15.2665 19.4013 14.7332 19.9346Z" fill="#979797"/>
<path d="M29.2931 24.4388C29.2931 24.8121 29.2265 25.1988 29.0931 25.5721C29.0531 25.6788 29.0131 25.7854 28.9598 25.8921C28.7331 26.3721 28.4398 26.8254 28.0531 27.2521C27.3998 27.9721 26.6798 28.4921 25.8665 28.8254C25.8531 28.8254 25.8398 28.8387 25.8265 28.8387C25.0398 29.1588 24.1865 29.3321 23.2665 29.3321C21.9065 29.3321 20.4531 29.0121 18.9198 28.3588C17.3865 27.7054 15.8531 26.8254 14.3331 25.7188C13.8131 25.3321 13.2931 24.9454 12.7998 24.5321L17.1598 20.1721C17.5331 20.4521 17.8665 20.6654 18.1465 20.8121C18.2131 20.8387 18.2931 20.8787 18.3865 20.9187C18.4931 20.9587 18.5998 20.9721 18.7198 20.9721C18.9465 20.9721 19.1198 20.8921 19.2665 20.7454L20.2798 19.7454C20.6131 19.4121 20.9331 19.1588 21.2398 18.9988C21.5465 18.8121 21.8531 18.7188 22.1865 18.7188C22.4398 18.7188 22.7065 18.7721 22.9998 18.8921C23.2931 19.0121 23.5998 19.1854 23.9331 19.4121L28.3465 22.5454C28.6931 22.7854 28.9331 23.0654 29.0798 23.3987C29.2131 23.7321 29.2931 24.0654 29.2931 24.4388Z" fill="#979797"/>
</svg>
