<svg width="373" height="364" viewBox="0 0 373 364" fill="none" xmlns="http://www.w3.org/2000/svg">
<path d="M116.909 21.8076C116.909 21.8076 53.4614 54.1301 21.8172 103.937C-9.82706 153.744 -7.32332 217.819 31.1287 265.382C69.5808 312.945 143.077 306.698 204.615 336.826C266.153 366.955 334.047 360.75 363.146 296.917C392.245 233.085 348.367 209.228 340.83 135.355C333.294 61.4822 266.698 -46.6894 116.909 21.8076Z" fill="#403279"/>
<path opacity="0.7" d="M116.909 21.8076C116.909 21.8076 53.4614 54.1301 21.8172 103.937C-9.82706 153.744 -7.32332 217.819 31.1287 265.382C69.5808 312.945 143.077 306.698 204.615 336.826C266.153 366.955 334.047 360.75 363.146 296.917C392.245 233.085 348.367 209.228 340.83 135.355C333.294 61.4822 266.698 -46.6894 116.909 21.8076Z" fill="white"/>
<path d="M80.3234 278.511C82.8355 277.674 87.2903 273.579 87.2903 273.571C87.2903 273.562 83.7064 271.486 83.4635 271.385C80.6416 270.196 74.4869 269.56 72.2511 272.164C71.8975 272.607 71.6404 273.119 71.4962 273.667C71.352 274.216 71.3239 274.788 71.4138 275.348C71.5036 275.907 71.7095 276.442 72.0181 276.918C72.3266 277.393 72.7312 277.799 73.2057 278.109C75.1819 279.516 78.1462 279.215 80.3234 278.511Z" fill="#403279"/>
<path d="M126.722 239.037C126.781 239.037 124.88 235.328 124.729 235.102C123.054 232.59 118.248 228.629 114.949 229.567C114.405 229.738 113.903 230.021 113.476 230.399C113.048 230.776 112.705 231.24 112.468 231.758C112.231 232.277 112.106 232.84 112.101 233.41C112.095 233.98 112.21 234.545 112.437 235.068C113.333 237.312 115.97 238.702 118.181 239.314C120.777 240.034 126.714 239.046 126.722 239.037Z" fill="#403279"/>
<path d="M93.4623 290.161C95.6227 288.746 98.6038 284.014 98.8382 283.638C101.541 285.348 104.355 286.875 107.262 288.21C108.937 288.997 110.679 289.742 112.42 290.462C111.583 290.244 110.821 290.069 110.746 290.052C107.706 289.65 101.602 290.663 100.136 293.761C99.9065 294.285 99.7898 294.851 99.7939 295.422C99.7979 295.994 99.9226 296.558 100.16 297.078C100.397 297.598 100.741 298.062 101.17 298.44C101.599 298.818 102.103 299.101 102.648 299.271C104.926 300.109 107.673 299.012 109.624 297.756C111.575 296.5 114.187 292.489 114.866 291.425L116.875 292.262C120.099 293.544 123.315 294.775 126.438 296.148C127.535 296.617 128.598 297.128 129.67 297.622C128.917 297.437 128.289 297.287 128.188 297.278C125.148 296.876 119.052 297.89 117.579 300.988C117.349 301.511 117.232 302.076 117.236 302.647C117.241 303.218 117.365 303.782 117.603 304.301C117.84 304.821 118.184 305.284 118.613 305.661C119.042 306.038 119.545 306.321 120.091 306.489C122.377 307.327 125.157 306.23 127.066 304.974C128.975 303.718 131.37 300.1 132.191 298.844C133.263 299.389 134.343 299.933 135.364 300.519C136.051 300.929 136.746 301.273 137.416 301.725L139.409 303.006C140.64 303.843 141.921 304.748 143.11 305.619C143.947 306.221 144.718 306.808 145.505 307.394C144.416 306.916 142.264 306.012 142.072 305.962C139.133 305.125 132.944 305.183 131.027 308.022C130.72 308.502 130.517 309.042 130.433 309.606C130.349 310.17 130.384 310.746 130.538 311.295C130.691 311.844 130.958 312.355 131.323 312.794C131.687 313.233 132.14 313.59 132.651 313.842C134.778 314.989 137.675 314.352 139.777 313.398C142.063 312.351 145.639 308.307 146.041 307.796C147.339 308.775 148.595 309.738 149.759 310.668C153.158 313.356 155.989 315.776 158.132 317.668L159.807 316.144C157.563 314.252 154.565 311.79 150.956 309.06C149.642 308.064 148.218 307.017 146.769 305.962C147.542 304.415 148.224 302.824 148.812 301.197C151.383 301.457 156.223 300.125 156.851 299.95C157.396 301.482 157.906 302.981 158.367 304.396C159.69 308.441 160.703 311.932 161.448 314.704L163.324 313.029C162.545 310.442 161.541 307.285 160.293 303.726C159.749 302.169 159.137 300.519 158.484 298.827C159.062 298.501 163.718 295.788 165.183 293.745C166.515 291.886 167.695 289.147 166.975 286.828C166.823 286.279 166.558 285.769 166.196 285.329C165.834 284.889 165.384 284.531 164.875 284.276C164.366 284.021 163.81 283.876 163.241 283.849C162.672 283.823 162.104 283.916 161.574 284.123C158.417 285.471 157.161 291.526 157.437 294.574C157.437 294.758 157.856 296.692 158.124 297.923C157.856 297.228 157.605 296.558 157.287 295.855C156.734 294.448 156.139 293.066 155.511 291.576C155.177 290.864 154.85 290.152 154.507 289.432C154.163 288.712 153.761 287.984 153.385 287.247C152.489 285.572 151.492 283.897 150.445 282.222C151.676 281.737 156.006 279.945 157.613 278.304C159.221 276.662 160.795 274.117 160.427 271.747C160.362 271.181 160.179 270.635 159.889 270.145C159.599 269.655 159.209 269.231 158.745 268.901C158.28 268.572 157.751 268.344 157.193 268.233C156.634 268.121 156.059 268.129 155.503 268.255C152.154 269.092 150.018 274.904 149.834 277.96C149.834 278.144 149.935 280.355 150.018 281.569C149.382 280.581 148.754 279.593 148.084 278.613C146.141 275.791 144.081 272.995 142.047 270.198C141.419 269.36 140.807 268.481 140.196 267.619C140.631 267.451 145.823 265.433 147.623 263.599C149.223 261.925 150.805 259.412 150.445 257.034C150.38 256.468 150.195 255.922 149.905 255.432C149.614 254.942 149.223 254.518 148.758 254.189C148.293 253.859 147.763 253.631 147.204 253.52C146.645 253.409 146.069 253.416 145.513 253.542C142.164 254.38 140.028 260.191 139.844 263.248C139.844 263.482 139.995 266.656 140.079 267.434C138.722 265.534 137.391 263.633 136.151 261.707C134.462 259.116 132.946 256.417 131.613 253.626C131.814 253.551 137.24 251.466 139.082 249.582C140.682 247.907 142.264 245.395 141.904 243.025C141.839 242.459 141.656 241.913 141.366 241.423C141.077 240.933 140.687 240.509 140.222 240.18C139.758 239.85 139.229 239.622 138.67 239.511C138.112 239.4 137.536 239.407 136.98 239.533C133.631 240.371 131.496 246.182 131.311 249.238C131.311 249.439 131.42 251.859 131.504 253.007L131.32 253.057C130.046 250.215 129.031 247.264 128.289 244.239C127.861 242.565 127.543 240.965 127.267 239.399C128.314 239.115 133.129 237.766 134.954 236.251C136.78 234.735 138.571 232.457 138.479 230.037C138.475 229.468 138.35 228.905 138.115 228.387C137.879 227.868 137.537 227.405 137.11 227.026C136.684 226.648 136.183 226.364 135.64 226.192C135.097 226.019 134.524 225.963 133.958 226.026C130.566 226.504 127.778 232.03 127.259 235.053C127.259 235.212 127.125 236.912 127.066 238.152C126.957 237.44 126.823 236.711 126.731 236.025C126.371 233.454 126.195 231.084 126.053 228.982C125.986 227.785 125.952 226.696 125.927 225.683C126.806 224.846 130.34 221.496 131.261 219.378C132.182 217.259 132.727 214.354 131.529 212.243C131.264 211.738 130.895 211.295 130.447 210.942C129.999 210.589 129.482 210.334 128.929 210.194C128.376 210.054 127.8 210.033 127.238 210.13C126.676 210.228 126.141 210.443 125.668 210.761C122.871 212.754 122.946 218.942 123.876 221.865C123.959 222.116 125.659 225.918 125.709 225.876L125.76 225.826C125.76 226.797 125.76 227.844 125.827 228.991C125.919 231.101 126.036 233.487 126.346 236.075C126.648 238.863 127.112 241.631 127.736 244.365C128.419 247.434 129.378 250.436 130.6 253.333L130.65 253.434C129.997 252.672 128.096 250.603 127.928 250.461C125.617 248.451 119.965 245.931 117.043 247.706C116.563 248.014 116.153 248.419 115.841 248.895C115.528 249.372 115.32 249.909 115.229 250.472C115.138 251.035 115.167 251.61 115.313 252.161C115.46 252.711 115.721 253.225 116.08 253.668C117.537 255.602 120.442 256.247 122.737 256.256C125.316 256.256 130.407 253.953 130.817 253.743C132.129 256.663 133.634 259.491 135.322 262.209C136.294 263.792 137.324 265.366 138.379 266.924C137.793 266.287 137.265 265.718 137.181 265.642C134.87 263.641 129.218 261.112 126.296 262.888C125.816 263.195 125.406 263.6 125.094 264.077C124.781 264.554 124.573 265.091 124.482 265.653C124.391 266.216 124.42 266.792 124.566 267.342C124.713 267.893 124.974 268.407 125.333 268.85C126.781 270.792 129.695 271.429 131.99 271.437C134.284 271.445 138.689 269.561 139.844 269.051C140.255 269.645 140.682 270.248 141.075 270.843C143.051 273.681 145.036 276.52 146.937 279.35C147.598 280.355 148.21 281.36 148.821 282.365C148.302 281.795 147.858 281.326 147.783 281.259C145.471 279.25 139.819 276.729 136.897 278.505C136.418 278.813 136.009 279.219 135.697 279.695C135.385 280.172 135.178 280.71 135.087 281.272C134.997 281.835 135.027 282.41 135.174 282.961C135.321 283.511 135.583 284.024 135.942 284.467C137.391 286.401 140.305 287.046 142.591 287.054C144.877 287.062 148.871 285.379 150.244 284.76C150.847 285.806 151.45 286.853 151.978 287.9C152.329 288.62 152.715 289.29 153.016 290.035C153.318 290.78 153.661 291.492 153.971 292.204C154.532 293.611 155.11 295.051 155.645 296.433C156.006 297.387 156.332 298.308 156.659 299.229C156.022 298.225 154.716 296.29 154.59 296.14C152.766 294.148 150.458 292.66 147.891 291.819C147.701 291.586 147.488 291.373 147.255 291.182C146.826 290.807 146.324 290.527 145.78 290.359C145.236 290.191 144.662 290.139 144.097 290.207C143.531 290.275 142.987 290.461 142.498 290.753C142.009 291.045 141.587 291.437 141.259 291.902C139.367 294.766 141.661 300.511 143.579 302.905C143.688 303.048 145.086 304.438 145.982 305.3L144.09 304.069C142.859 303.232 141.578 302.395 140.255 301.482L138.237 300.243C137.567 299.816 136.813 299.447 136.093 299.045C134.418 298.141 132.668 297.303 130.893 296.533C131.646 295.453 134.242 291.576 134.703 289.315C135.163 287.054 135.055 284.09 133.438 282.289C133.071 281.854 132.617 281.5 132.104 281.252C131.591 281.004 131.032 280.866 130.463 280.848C129.893 280.829 129.326 280.931 128.799 281.147C128.271 281.362 127.795 281.686 127.401 282.097C125.098 284.609 126.497 290.663 128.021 293.318C128.121 293.485 129.427 295.26 130.173 296.223C129.101 295.754 128.029 295.277 126.932 294.833C123.75 293.552 120.493 292.321 117.252 291.14C116.256 290.772 115.267 290.387 114.279 290.01C114.556 289.633 117.771 285.086 118.257 282.557C118.692 280.313 118.617 277.332 116.992 275.532C116.625 275.096 116.171 274.743 115.658 274.494C115.145 274.246 114.586 274.108 114.017 274.09C113.447 274.072 112.88 274.174 112.353 274.389C111.825 274.604 111.349 274.928 110.955 275.339C108.652 277.851 110.051 283.906 111.583 286.56C111.692 286.761 113.584 289.315 114.095 289.909C111.918 289.072 109.758 288.235 107.656 287.305C104.818 286.077 102.066 284.661 99.416 283.068C99.5416 282.892 102.925 278.161 103.419 275.574C103.846 273.33 103.77 270.348 102.154 268.548C101.787 268.113 101.332 267.759 100.82 267.511C100.307 267.262 99.7478 267.125 99.1784 267.106C98.609 267.088 98.0422 267.19 97.5147 267.405C96.9872 267.62 96.511 267.944 96.1168 268.356C93.814 270.868 95.2124 276.922 96.7364 279.576C96.8369 279.752 98.2772 281.703 98.989 282.616L98.855 282.758C96.2284 281.087 93.7566 279.184 91.4694 277.073C90.1882 275.925 89.0326 274.761 87.9357 273.597C88.6558 272.76 91.9048 269.017 92.6166 266.731C93.3283 264.445 93.5377 261.573 92.1309 259.613C91.8116 259.141 91.3967 258.742 90.9131 258.44C90.4295 258.138 89.888 257.942 89.3236 257.863C88.7591 257.784 88.1844 257.825 87.6367 257.982C87.0889 258.139 86.5802 258.41 86.1437 258.776C83.5813 261.054 84.3099 267.2 85.5324 270.005C85.5994 270.156 86.4535 271.63 87.0899 272.693C86.6043 272.166 86.0935 271.63 85.6329 271.111C83.9582 269.168 82.4593 267.284 81.1865 265.601C80.4663 264.638 79.8383 263.758 79.2521 262.929C79.5452 261.757 80.6505 257.026 80.2319 254.723C79.8132 252.42 78.6744 249.699 76.5139 248.627C76.0152 248.353 75.4644 248.187 74.8973 248.14C74.3301 248.092 73.7594 248.165 73.2222 248.353C72.6851 248.541 72.1935 248.84 71.7796 249.231C71.3657 249.621 71.0387 250.095 70.8198 250.62C69.5889 253.819 73.064 258.935 75.4421 260.861C75.6514 261.029 79.1684 263.256 79.1851 263.197C79.1869 263.172 79.1869 263.147 79.1851 263.122C79.7294 263.959 80.324 264.797 80.9855 265.735C82.2248 267.409 83.6483 269.369 85.3314 271.353C87.124 273.513 89.0391 275.568 91.0674 277.508C93.3327 279.673 95.7845 281.635 98.3944 283.37L98.4949 283.428C97.5319 283.152 94.8021 282.474 94.5844 282.449C91.5447 282.047 85.4487 283.06 83.9749 286.158C83.7452 286.681 83.6286 287.247 83.6326 287.819C83.6367 288.391 83.7614 288.955 83.9985 289.475C84.2356 289.995 84.5798 290.459 85.0087 290.837C85.4375 291.215 85.9413 291.498 86.487 291.668C88.773 292.489 91.5531 291.425 93.4623 290.161Z" fill="#403279"/>
<path d="M250.125 77.7334C251.917 80.7311 258.373 85.1273 258.382 85.1273C258.39 85.1273 259.99 79.9943 260.057 79.6509C260.743 75.7404 259.772 67.7686 255.87 65.692C255.207 65.3648 254.482 65.181 253.743 65.1524C253.004 65.1238 252.268 65.2511 251.581 65.5259C250.895 65.8008 250.274 66.2171 249.759 66.7478C249.244 67.2785 248.847 67.9116 248.593 68.606C247.379 71.5201 248.601 75.1877 250.125 77.7334Z" fill="#403279"/>
<path d="M313.439 125.079C313.439 125.155 317.626 121.68 317.852 121.429C320.59 118.54 324.174 111.38 322.039 107.453C321.666 106.814 321.163 106.261 320.562 105.829C319.962 105.398 319.277 105.098 318.553 104.948C317.828 104.799 317.081 104.804 316.358 104.963C315.636 105.122 314.955 105.431 314.36 105.87C311.773 107.654 310.776 111.388 310.634 114.353C310.475 117.836 313.439 125.071 313.439 125.079Z" fill="#403279"/>
<path d="M239.164 97.7241C241.584 100.044 248.434 102.455 248.978 102.64C247.596 106.555 246.477 110.558 245.629 114.622C245.118 116.984 244.674 119.387 244.264 121.799C244.264 120.668 244.264 119.655 244.264 119.513C243.895 115.56 240.856 108.124 236.51 107.161C235.783 107.02 235.035 107.033 234.314 107.2C233.594 107.367 232.916 107.684 232.326 108.131C231.736 108.577 231.246 109.143 230.889 109.791C230.532 110.439 230.316 111.155 230.254 111.892C229.886 115.016 232.046 118.231 234.19 120.266C236.334 122.301 242.162 124.528 243.703 125.081C243.552 126.002 243.393 126.932 243.25 127.853C242.555 132.299 241.886 136.737 241.09 141.075C240.814 142.599 240.479 144.098 240.152 145.597C240.152 144.592 240.152 143.746 240.152 143.62C239.784 139.66 236.744 132.232 232.398 131.261C231.672 131.121 230.924 131.135 230.204 131.303C229.483 131.471 228.806 131.789 228.217 132.237C227.628 132.684 227.139 133.25 226.783 133.898C226.427 134.547 226.212 135.263 226.151 136C225.783 139.115 227.935 142.331 230.079 144.374C232.222 146.417 237.489 148.41 239.29 149.08C238.913 150.604 238.536 152.128 238.101 153.585C237.774 154.573 237.54 155.545 237.163 156.524L236.108 159.413C235.379 161.222 234.634 163.098 233.872 164.856C233.353 166.07 232.834 167.226 232.314 168.39C232.607 166.874 233.152 163.893 233.152 163.642C233.386 159.673 231.477 151.869 227.357 150.244C226.66 149.994 225.918 149.894 225.18 149.95C224.442 150.007 223.724 150.218 223.073 150.57C222.422 150.923 221.852 151.408 221.402 151.996C220.951 152.583 220.629 153.259 220.457 153.979C219.62 157.002 221.295 160.51 223.07 162.863C225.063 165.459 231.201 168.775 231.971 169.185C231.134 171.103 230.246 172.97 229.409 174.712C226.98 179.795 224.736 184.065 222.961 187.34L225.381 189.065C227.139 185.715 229.384 181.185 231.795 175.826C232.683 173.875 233.596 171.773 234.508 169.604C236.687 170.142 238.896 170.548 241.124 170.818C241.542 174.168 244.615 179.895 245.017 180.632C243.234 181.763 241.492 182.843 239.826 183.831C235.094 186.678 230.933 188.972 227.675 190.706L230.313 192.59C233.369 190.865 237.071 188.688 241.199 186.083C243.016 184.945 244.934 183.689 246.885 182.382C247.462 183.019 252.235 188.127 255.258 189.399C257.997 190.547 261.798 191.258 264.52 189.676C265.172 189.328 265.745 188.847 266.199 188.263C266.653 187.679 266.979 187.006 267.155 186.287C267.331 185.569 267.354 184.822 267.221 184.094C267.089 183.366 266.805 182.674 266.387 182.064C263.774 178.455 255.752 178.614 251.967 179.845C251.75 179.92 249.413 180.976 247.956 181.671C248.752 181.135 249.531 180.615 250.343 180.054C251.959 178.949 253.542 177.802 255.242 176.579L257.67 174.695C258.507 174.076 259.286 173.33 260.107 172.644C261.974 171.019 263.791 169.294 265.575 167.485C266.546 168.892 270.063 173.858 272.6 175.415C275.138 176.973 278.788 178.246 281.711 177.09C282.409 176.845 283.048 176.456 283.585 175.947C284.123 175.439 284.547 174.823 284.831 174.139C285.114 173.456 285.251 172.721 285.231 171.981C285.212 171.241 285.036 170.514 284.717 169.847C282.682 165.886 274.719 164.823 270.8 165.467C270.557 165.509 267.794 166.305 266.286 166.74C267.35 165.66 268.422 164.58 269.46 163.441C272.475 160.175 275.422 156.742 278.37 153.393C279.274 152.354 280.195 151.333 281.1 150.311C281.443 150.813 285.487 156.801 288.334 158.551C290.847 160.1 294.523 161.381 297.453 160.225C298.151 159.979 298.789 159.589 299.325 159.081C299.862 158.572 300.285 157.956 300.568 157.273C300.851 156.589 300.987 155.854 300.966 155.115C300.946 154.376 300.771 153.649 300.451 152.982C298.416 149.021 290.453 147.958 286.534 148.603C286.241 148.645 282.264 149.775 281.267 150.11C283.277 147.849 285.295 145.613 287.38 143.486C290.175 140.606 293.154 137.91 296.298 135.414C296.457 135.649 300.652 141.921 303.566 143.713C306.078 145.262 309.754 146.534 312.685 145.387C313.383 145.141 314.02 144.751 314.557 144.242C315.094 143.734 315.517 143.118 315.8 142.434C316.083 141.751 316.218 141.016 316.198 140.277C316.178 139.538 316.003 138.811 315.683 138.144C313.648 134.183 305.685 133.12 301.766 133.773C301.506 133.773 298.483 134.669 297.052 135.104L296.934 134.878C300.169 132.453 303.613 130.321 307.226 128.506C309.202 127.484 311.144 126.622 313.087 125.818C313.749 127.066 316.839 132.735 319.284 134.635C321.729 136.536 325.145 138.127 328.16 137.307C328.88 137.139 329.556 136.821 330.145 136.375C330.734 135.929 331.223 135.363 331.579 134.715C331.935 134.068 332.151 133.352 332.213 132.616C332.274 131.879 332.18 131.138 331.936 130.44C330.345 126.253 322.558 124.344 318.589 124.579C318.371 124.579 316.185 124.955 314.603 125.232C315.44 124.888 316.361 124.512 317.199 124.193C320.347 122.996 323.295 122.092 325.924 121.313C327.415 120.877 328.779 120.476 330.052 120.191C331.342 121.078 336.575 124.587 339.573 125.131C342.571 125.676 346.364 125.542 348.675 123.415C349.237 122.934 349.692 122.34 350.009 121.672C350.326 121.004 350.499 120.276 350.516 119.537C350.534 118.798 350.395 118.063 350.11 117.38C349.824 116.698 349.398 116.084 348.86 115.577C345.51 112.621 337.731 114.497 334.306 116.506C334.005 116.682 329.692 119.94 329.759 119.99L329.835 120.04C328.604 120.325 327.281 120.651 325.84 121.028C323.203 121.757 320.213 122.602 317.031 123.733C313.587 124.933 310.215 126.331 306.932 127.92C303.248 129.672 299.726 131.745 296.407 134.116L296.298 134.208C297.068 133.162 299.145 130.164 299.279 129.913C301.155 126.404 302.72 118.533 299.631 115.326C299.101 114.81 298.469 114.41 297.775 114.154C297.082 113.897 296.342 113.789 295.604 113.837C294.866 113.884 294.146 114.086 293.491 114.429C292.836 114.772 292.26 115.248 291.801 115.828C289.775 118.231 289.8 122.1 290.453 124.997C291.19 128.263 295.569 134.049 295.921 134.51C292.606 137.011 289.462 139.73 286.509 142.649C284.776 144.324 283.093 146.099 281.418 147.883C282.063 146.953 282.624 146.116 282.691 145.99C284.566 142.49 286.132 134.61 283.042 131.412C282.515 130.893 281.884 130.492 281.191 130.234C280.497 129.976 279.758 129.867 279.019 129.915C278.281 129.962 277.562 130.165 276.907 130.509C276.253 130.854 275.678 131.332 275.221 131.914C273.186 134.309 273.212 138.178 273.865 141.075C274.518 143.972 278.169 149.03 279.149 150.336L277.239 152.404C274.208 155.754 271.202 159.062 268.145 162.235C267.074 163.357 265.968 164.421 264.871 165.493C265.441 164.655 265.918 163.969 265.977 163.818C267.852 160.318 269.418 152.438 266.328 149.239C265.8 148.721 265.169 148.32 264.475 148.062C263.782 147.805 263.042 147.695 262.304 147.742C261.565 147.788 260.845 147.99 260.189 148.333C259.534 148.676 258.958 149.153 258.499 149.733C256.473 152.136 256.498 156.005 257.151 158.902C257.804 161.8 261.095 166.363 262.259 167.929C261.103 168.984 259.948 170.048 258.775 171.028C257.938 171.672 257.226 172.351 256.372 172.962L253.902 174.787C252.294 175.901 250.636 177.048 249.037 178.095C247.923 178.823 246.86 179.502 245.779 180.188C246.868 179.083 248.945 176.881 249.129 176.68C251.12 173.803 252.343 170.465 252.679 166.983C252.916 166.673 253.123 166.343 253.299 165.995C253.65 165.344 253.86 164.626 253.916 163.888C253.971 163.15 253.871 162.409 253.621 161.713C253.372 161.016 252.979 160.38 252.467 159.845C251.956 159.311 251.338 158.89 250.653 158.609C246.466 157.043 239.876 161.599 237.406 164.714C237.255 164.898 235.898 167.067 235.061 168.448C235.429 167.561 235.798 166.707 236.166 165.786C236.903 163.977 237.59 162.151 238.327 160.184C238.653 159.221 238.988 158.249 239.315 157.27C239.641 156.29 239.909 155.243 240.219 154.222C240.881 151.827 241.433 149.382 241.936 146.895C243.518 147.539 249.187 149.742 252.168 149.641C255.149 149.541 258.867 148.586 260.701 146.015C261.147 145.425 261.464 144.748 261.63 144.027C261.797 143.307 261.81 142.559 261.669 141.833C261.527 141.107 261.235 140.419 260.81 139.814C260.385 139.209 259.837 138.699 259.202 138.32C255.325 136.134 248.099 139.643 245.185 142.339C245.001 142.515 243.125 144.684 242.12 145.898C242.405 144.408 242.706 142.917 242.957 141.393C243.661 136.997 244.239 132.534 244.841 128.079C245.017 126.714 245.218 125.357 245.411 124.001C245.972 124.235 252.654 126.999 255.995 126.881C258.96 126.781 262.694 125.826 264.52 123.256C264.966 122.666 265.283 121.989 265.45 121.269C265.618 120.549 265.631 119.801 265.491 119.075C265.35 118.35 265.058 117.661 264.634 117.056C264.21 116.45 263.663 115.94 263.029 115.56C259.144 113.383 251.917 116.883 249.003 119.588C248.785 119.789 246.089 122.937 245.444 123.775C245.871 120.785 246.282 117.804 246.885 114.882C247.636 110.933 248.64 107.037 249.891 103.217C250.15 103.326 257.109 106.249 260.534 106.131C263.498 106.022 267.233 105.076 269.058 102.506C269.505 101.915 269.822 101.238 269.989 100.517C270.157 99.796 270.17 99.048 270.03 98.3214C269.889 97.5949 269.597 96.906 269.173 96.2996C268.749 95.6933 268.202 95.1829 267.568 94.8017C263.682 92.6246 256.464 96.1248 253.542 98.8295C253.349 99.0053 251.298 101.392 250.343 102.547L250.125 102.422C251.469 98.617 253.15 94.9402 255.149 91.4355C256.238 89.4928 257.377 87.6924 258.499 85.9675C259.738 86.6457 265.441 89.6686 268.547 89.9115C271.512 90.1292 275.338 89.5933 277.424 87.2403C277.931 86.7027 278.32 86.0642 278.565 85.3664C278.81 84.6686 278.905 83.9271 278.844 83.1901C278.783 82.4531 278.568 81.7372 278.212 81.0889C277.856 80.4407 277.368 79.8746 276.779 79.4276C273.161 76.8317 265.6 79.5197 262.401 81.8895C262.234 82.0151 260.609 83.514 259.445 84.6277C259.973 83.8573 260.509 83.0534 261.036 82.3249C262.996 79.5951 264.963 77.2086 266.714 75.1068C267.727 73.9261 268.665 72.871 269.544 71.8996C271.11 71.8996 277.415 71.9666 280.212 70.7692C283.009 69.5717 286.074 67.3611 286.861 64.3131C287.064 63.6007 287.115 62.8534 287.01 62.12C286.905 61.3866 286.647 60.6836 286.252 60.057C285.857 59.4303 285.334 58.894 284.717 58.4831C284.101 58.0723 283.404 57.7961 282.674 57.6727C278.269 57.0363 272.793 62.9146 271.043 66.4818C270.892 66.7917 269.092 71.8913 269.167 71.8913H269.268C268.43 72.8124 267.467 73.8088 266.479 74.9225C264.679 76.9825 262.652 79.3355 260.618 82.0318C258.398 84.9222 256.349 87.939 254.48 91.0671C252.374 94.5607 250.584 98.2344 249.129 102.045L249.079 102.187C249.154 100.881 249.221 97.2385 249.196 96.9538C248.827 92.993 245.788 85.5655 241.442 84.6025C240.716 84.4625 239.969 84.4767 239.249 84.6443C238.529 84.8119 237.853 85.1292 237.264 85.5754C236.674 86.0216 236.186 86.5869 235.829 87.2344C235.473 87.8819 235.257 88.5972 235.195 89.3337C234.868 92.4571 237.02 95.6726 239.164 97.7241Z" fill="#403279"/>
<path d="M289.81 245.126V242.321C289.81 227.876 308.098 227.248 308.098 216.965C308.098 212.502 304.464 209.588 299.054 209.588C293.134 209.588 289.391 212.812 289.391 217.384V218.531C289.391 219.67 288.772 220.206 287.624 220.206L276.512 219.787C275.474 219.787 274.746 219.268 274.746 218.548V217.401C274.746 204.84 284.719 196.207 299.373 196.207C313.708 196.207 322.953 204.313 322.953 216.463C322.953 233.713 304.355 233.822 304.355 243.259V245.126C304.383 245.365 304.357 245.607 304.278 245.834C304.199 246.062 304.07 246.268 303.9 246.438C303.73 246.608 303.524 246.737 303.296 246.816C303.069 246.895 302.827 246.921 302.588 246.893H291.577C291.338 246.921 291.096 246.895 290.869 246.816C290.641 246.737 290.435 246.608 290.265 246.438C290.095 246.268 289.966 246.062 289.887 245.834C289.808 245.607 289.782 245.365 289.81 245.126ZM288.872 261.874C288.872 257.302 292.925 253.559 297.807 253.559C302.488 253.559 306.641 257.302 306.641 261.874C306.641 266.446 302.454 270.189 297.706 270.189C292.958 270.189 288.872 266.429 288.872 261.857V261.874Z" fill="#403279"/>
<path d="M70.2514 126.131V123.694C70.2514 111.134 86.1614 110.606 86.1614 101.671C86.1614 97.7861 83.0046 95.2656 78.3153 95.2656C73.1655 95.2656 69.9416 98.0624 69.9416 102.032V103.028C69.9416 104.016 69.4057 104.468 68.4092 104.468L58.7543 104.108C57.8499 104.108 57.2219 103.656 57.2219 103.028V102.032C57.2219 91.1457 65.8803 83.6094 78.6084 83.6094C91.0601 83.6094 99.0988 90.6517 99.0988 101.194C99.0988 116.175 82.9376 116.267 82.9376 124.481V126.106C82.9617 126.313 82.9387 126.523 82.8702 126.72C82.8017 126.917 82.6896 127.096 82.5422 127.243C82.3948 127.39 82.2159 127.502 82.019 127.571C81.8221 127.639 81.6123 127.662 81.4052 127.638H71.7838C71.5791 127.662 71.3717 127.639 71.1768 127.572C70.9819 127.505 70.8045 127.395 70.6576 127.251C70.5107 127.106 70.398 126.931 70.3277 126.737C70.2574 126.543 70.2313 126.336 70.2514 126.131ZM69.414 140.659C69.414 136.69 72.931 133.441 77.1681 133.441C81.2293 133.441 84.8468 136.69 84.8468 140.659C84.8468 144.629 81.2293 147.878 77.0843 147.878C75.1153 147.927 73.2065 147.196 71.7742 145.844C70.342 144.492 69.5026 142.628 69.4392 140.659H69.414Z" fill="#403279"/>
<path d="M210.252 74.0801V72.8492C210.252 66.5103 218.274 66.234 218.274 61.7205C218.274 59.7611 216.675 58.4799 214.305 58.4799C211.709 58.4799 210.068 59.8951 210.068 61.9047V62.4072C210.068 62.9096 209.791 63.1357 209.289 63.1357L204.415 62.9515C203.955 62.9515 203.637 62.7254 203.637 62.4072V61.9047C203.637 56.3865 208.016 52.6016 214.447 52.6016C220.736 52.6016 224.797 56.1604 224.797 61.4944C224.797 69.0308 216.633 69.1061 216.633 73.2176V74.055C216.645 74.1599 216.633 74.2662 216.598 74.3658C216.563 74.4655 216.506 74.5559 216.431 74.6301C216.356 74.7044 216.265 74.7605 216.165 74.7944C216.065 74.8282 215.959 74.8388 215.854 74.8254H211.022C210.92 74.8384 210.817 74.8283 210.719 74.7958C210.621 74.7633 210.532 74.7093 210.458 74.6377C210.384 74.5662 210.327 74.4789 210.292 74.3824C210.256 74.2859 210.242 74.1826 210.252 74.0801ZM209.842 81.4238C209.788 80.6409 209.971 79.8598 210.367 79.1823C210.763 78.5048 211.354 77.9621 212.063 77.6248C212.771 77.2876 213.565 77.1714 214.341 77.2913C215.116 77.4112 215.838 77.7618 216.411 78.2973C216.985 78.8328 217.384 79.5286 217.557 80.2941C217.73 81.0596 217.669 81.8595 217.381 82.5897C217.093 83.3198 216.593 83.9465 215.944 84.3882C215.295 84.8299 214.529 85.0662 213.744 85.0664C213.248 85.0843 212.754 85.0042 212.289 84.8307C211.825 84.6572 211.399 84.3936 211.036 84.0552C210.674 83.7168 210.382 83.3102 210.177 82.8586C209.972 82.4071 209.858 81.9195 209.842 81.4238Z" fill="#403279"/>
<path d="M37.2001 199.396V197.847C37.2001 189.858 47.3155 189.515 47.3155 183.821C47.3155 181.351 45.3058 179.743 42.2913 179.743C39.0172 179.743 36.9489 181.526 36.9489 184.055V184.683C36.9489 185.32 36.6056 185.604 35.9692 185.604L29.8229 185.378C29.2451 185.378 28.8431 185.085 28.8431 184.683V184.055C28.8431 177.105 34.3614 172.332 42.4672 172.332C50.3971 172.332 55.505 176.812 55.505 183.536C55.505 193.074 45.2221 193.132 45.2221 198.366V199.396C45.2384 199.528 45.2242 199.663 45.1807 199.789C45.1372 199.915 45.0656 200.03 44.9711 200.125C44.8767 200.219 44.762 200.291 44.6357 200.334C44.5095 200.378 44.3749 200.392 44.2424 200.376H38.1631C38.0318 200.389 37.8992 200.373 37.7751 200.328C37.651 200.283 37.5385 200.211 37.446 200.117C37.3535 200.023 37.2834 199.91 37.2408 199.785C37.1982 199.66 37.1843 199.527 37.2001 199.396ZM36.6809 208.649C36.6154 207.662 36.8483 206.679 37.3495 205.827C37.8506 204.974 38.5967 204.293 39.4907 203.87C40.3847 203.448 41.3851 203.305 42.3617 203.459C43.3383 203.613 44.2459 204.058 44.9663 204.735C45.6867 205.412 46.1865 206.29 46.4006 207.256C46.6148 208.221 46.5335 209.228 46.1671 210.147C45.8008 211.065 45.1665 211.852 44.3468 212.405C43.527 212.957 42.5599 213.251 41.5712 213.246C40.311 213.287 39.0862 212.825 38.166 211.963C37.2459 211.101 36.7057 209.909 36.6642 208.649H36.6809Z" stroke="#403279" stroke-miterlimit="10"/>
<path d="M154.698 94.0874V93.0239C154.698 87.5308 161.657 87.2879 161.657 83.3774C161.657 81.7027 160.275 80.5722 158.215 80.5722C155.963 80.5722 154.539 81.7948 154.539 83.5365V83.972C154.539 84.4074 154.305 84.6 153.869 84.6L149.683 84.4409C149.289 84.4409 149.013 84.2483 149.013 83.972V83.5365C149.013 78.7551 152.806 75.4727 158.374 75.4727C163.943 75.4727 167.259 78.5542 167.259 83.1765C167.259 89.7414 160.183 89.7833 160.183 93.3756V94.0874C160.194 94.178 160.184 94.2698 160.154 94.356C160.124 94.4422 160.075 94.5204 160.011 94.5849C159.946 94.6494 159.868 94.6984 159.782 94.7283C159.696 94.7582 159.604 94.7681 159.513 94.7573H155.326C155.239 94.7615 155.152 94.7467 155.071 94.7139C154.99 94.6811 154.917 94.6311 154.858 94.5674C154.798 94.5037 154.753 94.4278 154.725 94.3449C154.698 94.262 154.689 94.1742 154.698 94.0874ZM154.347 100.451C154.31 99.7823 154.475 99.1176 154.819 98.5431C155.164 97.9686 155.674 97.5107 156.282 97.2287C156.89 96.9467 157.568 96.8536 158.229 96.9612C158.891 97.0689 159.505 97.3725 159.992 97.8328C160.479 98.293 160.817 98.8888 160.961 99.543C161.106 100.197 161.052 100.88 160.804 101.503C160.557 102.126 160.129 102.66 159.575 103.037C159.021 103.414 158.366 103.616 157.696 103.617C156.831 103.646 155.99 103.331 155.357 102.741C154.725 102.15 154.352 101.333 154.322 100.468L154.347 100.451Z" fill="#403279"/>
<path d="M238.169 284.416V283.352C238.169 277.859 245.128 277.624 245.128 273.706C245.128 272.031 243.746 270.9 241.686 270.9C239.434 270.9 238.01 272.123 238.01 273.865V274.3C238.01 274.736 237.776 274.936 237.34 274.936L233.154 274.777C232.76 274.777 232.484 274.576 232.484 274.3V273.865C232.484 269.083 236.277 265.801 241.845 265.801C247.414 265.801 250.822 268.882 250.822 273.513C250.822 280.07 243.746 280.111 243.746 283.704V284.416C243.757 284.506 243.747 284.599 243.717 284.685C243.687 284.772 243.638 284.85 243.574 284.915C243.51 284.98 243.432 285.03 243.345 285.061C243.259 285.092 243.167 285.103 243.076 285.094H238.89C238.795 285.112 238.697 285.107 238.604 285.08C238.512 285.053 238.427 285.004 238.357 284.938C238.286 284.872 238.233 284.79 238.2 284.699C238.168 284.609 238.157 284.511 238.169 284.416ZM237.818 290.78C237.781 290.11 237.946 289.446 238.29 288.871C238.635 288.297 239.145 287.839 239.753 287.557C240.36 287.275 241.039 287.182 241.7 287.289C242.362 287.397 242.976 287.701 243.463 288.161C243.95 288.621 244.287 289.217 244.432 289.871C244.577 290.525 244.523 291.208 244.275 291.831C244.028 292.454 243.6 292.988 243.046 293.365C242.492 293.742 241.837 293.944 241.167 293.945C240.305 293.965 239.47 293.644 238.844 293.051C238.218 292.458 237.852 291.641 237.826 290.78H237.818Z" stroke="#403279" stroke-miterlimit="10"/>
<path d="M205.386 303.476C205.327 303.301 205.269 303.125 205.202 302.949C205.135 302.773 205.084 302.589 205.018 302.413C204.951 302.237 204.9 302.061 204.833 301.885C204.766 301.71 204.716 301.525 204.649 301.349C204.582 301.174 204.532 300.998 204.465 300.822C204.398 300.646 204.348 300.462 204.281 300.286L204.096 299.758C204.038 299.574 203.971 299.398 203.912 299.223L203.728 298.695C203.669 298.511 203.602 298.335 203.544 298.159L203.36 297.632C203.301 297.447 203.234 297.271 203.175 297.096L202.999 296.535C202.941 296.35 202.874 296.174 202.815 295.999L202.623 295.471C202.564 295.287 202.505 295.111 202.438 294.935C202.371 294.759 202.321 294.583 202.254 294.408C202.187 294.232 202.137 294.048 202.07 293.872C202.003 293.696 201.953 293.52 201.886 293.344C199.156 285.037 190.715 278.941 181.429 278.941C172.427 278.941 164.598 284.183 161.332 291.569C161.248 291.736 161.173 291.912 161.097 292.08L160.871 292.599C160.788 292.766 160.712 292.934 160.637 293.11C160.562 293.286 160.478 293.453 160.402 293.621L160.176 294.131C160.093 294.307 160.017 294.475 159.942 294.65C159.866 294.826 159.783 294.985 159.707 295.161C159.632 295.337 159.548 295.496 159.473 295.672L159.247 296.183C159.163 296.35 159.088 296.526 159.012 296.694C158.937 296.861 158.853 297.037 158.778 297.204L158.552 297.724C158.468 297.891 158.393 298.059 158.317 298.234C158.242 298.41 158.158 298.578 158.083 298.745L157.857 299.256C157.773 299.432 157.698 299.599 157.622 299.775C157.547 299.951 157.463 300.11 157.388 300.286L157.162 300.797C157.078 300.964 157.003 301.14 156.927 301.308C156.852 301.475 156.768 301.651 156.693 301.827C155.256 304.886 154.518 308.227 154.532 311.607C154.532 325.089 166.172 336.109 180.566 336.109C194.651 336.109 206.902 325.089 206.902 311.607C206.899 309.037 206.448 306.487 205.57 304.071C205.512 303.828 205.453 303.652 205.386 303.476Z" fill="#403279"/>
<path d="M185.465 118.004C142.282 118.004 112.882 143.418 112.882 180.48V183.83C112.889 184.383 113.04 184.925 113.319 185.403C113.597 185.882 113.995 186.28 114.473 186.559C114.653 186.733 114.849 186.89 115.059 187.028C115.24 187.205 115.439 187.362 115.653 187.497C115.835 187.674 116.034 187.831 116.248 187.966C116.428 188.144 116.627 188.302 116.842 188.435C117.021 188.611 117.217 188.769 117.429 188.904C117.61 189.083 117.809 189.243 118.023 189.381C118.207 189.555 118.406 189.712 118.618 189.85C118.8 190.026 118.999 190.183 119.212 190.319C119.391 190.495 119.587 190.652 119.798 190.788C119.995 190.978 120.211 191.146 120.443 191.291C120.614 191.446 120.796 191.589 120.987 191.718C121.171 191.892 121.37 192.049 121.582 192.187C121.763 192.36 121.959 192.517 122.168 192.655C122.352 192.829 122.551 192.986 122.763 193.124C122.944 193.3 123.144 193.457 123.357 193.593C123.536 193.769 123.732 193.926 123.943 194.062C124.125 194.238 124.324 194.395 124.538 194.531C124.717 194.707 124.913 194.864 125.124 195C125.308 195.174 125.507 195.331 125.718 195.469C125.897 195.645 126.094 195.802 126.305 195.938C127.272 196.789 128.535 197.228 129.822 197.161L156.751 198.165C159.523 198.165 161.03 196.909 161.03 194.138V191.374C161.03 180.296 170.091 172.5 184.477 172.5C197.565 172.5 206.374 179.542 206.374 190.369C206.374 191.603 206.256 192.834 206.022 194.046C192.507 211.764 157.329 219.577 157.329 253.968V262.241C157.329 265.59 159.163 267.441 162.538 267.441H194.961C198.31 267.441 200.169 265.607 200.169 262.241V256.723C200.169 228.855 254.992 228.545 254.992 177.708C254.992 141.886 227.727 118.004 185.465 118.004Z" fill="#403279"/>
<path d="M157.288 262.259V253.986C157.288 211.414 211.189 209.606 211.189 179.259C211.189 166.087 200.471 157.488 184.544 157.488C167.085 157.488 156.074 166.983 156.074 180.457V183.806C156.074 187.156 154.231 188.713 150.865 188.713L118.091 187.482C115.034 187.482 112.891 185.95 112.891 183.806V180.457C112.891 143.395 142.291 117.98 185.474 117.98C227.736 117.98 254.976 141.862 254.976 177.702C254.976 228.538 200.153 228.848 200.153 256.716V262.234C200.153 265.584 198.311 267.434 194.944 267.434H162.496C159.122 267.459 157.288 265.626 157.288 262.259ZM154.533 311.606C154.533 298.132 166.474 287.104 180.868 287.104C194.651 287.104 206.902 298.132 206.902 311.606C206.902 325.079 194.626 336.065 180.567 336.065C166.156 336.065 154.533 325.045 154.533 311.606Z" fill="#403279" stroke="#403279" stroke-miterlimit="10"/>
<path d="M179.226 363.523C204.481 363.523 224.955 358.945 224.955 353.299C224.955 347.652 204.481 343.074 179.226 343.074C153.971 343.074 133.497 347.652 133.497 353.299C133.497 358.945 153.971 363.523 179.226 363.523Z" fill="#403279"/>
</svg>
